<svg xmlns="http://www.w3.org/2000/svg" xmlns:xlink="http://www.w3.org/1999/xlink" width="566" zoomAndPan="magnify" viewBox="0 0 425.25 425.249985" height="566" preserveAspectRatio="xMidYMid meet" version="1.0"><defs><g/><clipPath id="545154750e"><path d="M 53 150 L 117 150 L 117 216 L 53 216 Z M 53 150 " clip-rule="nonzero"/></clipPath><clipPath id="b679e7d1d5"><path d="M -26.769531 189.730469 L 28.261719 60.183594 L 157.808594 115.21875 L 102.777344 244.765625 Z M -26.769531 189.730469 " clip-rule="nonzero"/></clipPath><clipPath id="632f3bb072"><path d="M -26.769531 189.730469 L 28.261719 60.183594 L 157.808594 115.21875 L 102.777344 244.765625 Z M -26.769531 189.730469 " clip-rule="nonzero"/></clipPath><clipPath id="46e584fa27"><path d="M 89 181 L 90 181 L 90 182 L 89 182 Z M 89 181 " clip-rule="nonzero"/></clipPath><clipPath id="4ea3411053"><path d="M -26.769531 189.730469 L 28.261719 60.183594 L 157.808594 115.21875 L 102.777344 244.765625 Z M -26.769531 189.730469 " clip-rule="nonzero"/></clipPath><clipPath id="79b8adde24"><path d="M -26.769531 189.730469 L 28.261719 60.183594 L 157.808594 115.21875 L 102.777344 244.765625 Z M -26.769531 189.730469 " clip-rule="nonzero"/></clipPath><clipPath id="0509e2a698"><path d="M 114 174 L 115 174 L 115 175 L 114 175 Z M 114 174 " clip-rule="nonzero"/></clipPath><clipPath id="15aac5d2cd"><path d="M -26.769531 189.730469 L 28.261719 60.183594 L 157.808594 115.21875 L 102.777344 244.765625 Z M -26.769531 189.730469 " clip-rule="nonzero"/></clipPath><clipPath id="923c99215a"><path d="M -26.769531 189.730469 L 28.261719 60.183594 L 157.808594 115.21875 L 102.777344 244.765625 Z M -26.769531 189.730469 " clip-rule="nonzero"/></clipPath><clipPath id="cb2323e9a2"><path d="M 115 174 L 116 174 L 116 175 L 115 175 Z M 115 174 " clip-rule="nonzero"/></clipPath><clipPath id="bd28969970"><path d="M -26.769531 189.730469 L 28.261719 60.183594 L 157.808594 115.21875 L 102.777344 244.765625 Z M -26.769531 189.730469 " clip-rule="nonzero"/></clipPath><clipPath id="14a1725190"><path d="M -26.769531 189.730469 L 28.261719 60.183594 L 157.808594 115.21875 L 102.777344 244.765625 Z M -26.769531 189.730469 " clip-rule="nonzero"/></clipPath><clipPath id="e442674452"><path d="M 106 195 L 108 195 L 108 196 L 106 196 Z M 106 195 " clip-rule="nonzero"/></clipPath><clipPath id="a4066a16e1"><path d="M -26.769531 189.730469 L 28.261719 60.183594 L 157.808594 115.21875 L 102.777344 244.765625 Z M -26.769531 189.730469 " clip-rule="nonzero"/></clipPath><clipPath id="0d2afdba09"><path d="M -26.769531 189.730469 L 28.261719 60.183594 L 157.808594 115.21875 L 102.777344 244.765625 Z M -26.769531 189.730469 " clip-rule="nonzero"/></clipPath><clipPath id="649dedfffc"><path d="M 63 175 L 119 175 L 119 241 L 63 241 Z M 63 175 " clip-rule="nonzero"/></clipPath><clipPath id="7a95aefa1e"><path d="M -26.769531 189.730469 L 28.261719 60.183594 L 157.808594 115.21875 L 102.777344 244.765625 Z M -26.769531 189.730469 " clip-rule="nonzero"/></clipPath><clipPath id="9e3c82d3bf"><path d="M -26.769531 189.730469 L 28.261719 60.183594 L 157.808594 115.21875 L 102.777344 244.765625 Z M -26.769531 189.730469 " clip-rule="nonzero"/></clipPath><clipPath id="bf6ada50dd"><path d="M 21 64 L 86 64 L 86 172 L 21 172 Z M 21 64 " clip-rule="nonzero"/></clipPath><clipPath id="e516f217cb"><path d="M -26.769531 189.730469 L 28.261719 60.183594 L 157.808594 115.21875 L 102.777344 244.765625 Z M -26.769531 189.730469 " clip-rule="nonzero"/></clipPath><clipPath id="4486071192"><path d="M -26.769531 189.730469 L 28.261719 60.183594 L 157.808594 115.21875 L 102.777344 244.765625 Z M -26.769531 189.730469 " clip-rule="nonzero"/></clipPath><clipPath id="53fef33943"><path d="M 30 102 L 40 102 L 40 111 L 30 111 Z M 30 102 " clip-rule="nonzero"/></clipPath><clipPath id="b3b263a285"><path d="M -26.769531 189.730469 L 28.261719 60.183594 L 157.808594 115.21875 L 102.777344 244.765625 Z M -26.769531 189.730469 " clip-rule="nonzero"/></clipPath><clipPath id="398857539d"><path d="M -26.769531 189.730469 L 28.261719 60.183594 L 157.808594 115.21875 L 102.777344 244.765625 Z M -26.769531 189.730469 " clip-rule="nonzero"/></clipPath><clipPath id="7c49de4358"><path d="M 25 86 L 39 86 L 39 100 L 25 100 Z M 25 86 " clip-rule="nonzero"/></clipPath><clipPath id="f87f6e3f34"><path d="M -26.769531 189.730469 L 28.261719 60.183594 L 157.808594 115.21875 L 102.777344 244.765625 Z M -26.769531 189.730469 " clip-rule="nonzero"/></clipPath><clipPath id="f62f4aecd1"><path d="M -26.769531 189.730469 L 28.261719 60.183594 L 157.808594 115.21875 L 102.777344 244.765625 Z M -26.769531 189.730469 " clip-rule="nonzero"/></clipPath></defs><g clip-path="url(#545154750e)"><g clip-path="url(#b679e7d1d5)"><g clip-path="url(#632f3bb072)"><path fill="#343332" d="M 94.910156 150.84375 C 93.847656 150.578125 92.707031 150.433594 91.640625 150.320312 C 90.574219 150.207031 89.550781 150.144531 88.542969 150.117188 C 82.558594 149.863281 76.042969 151.453125 70.042969 155.023438 C 65.160156 157.929688 61.28125 161.75 58.558594 165.976562 C 57.597656 167.359375 56.714844 168.933594 55.96875 170.6875 C 54.777344 173.488281 53.945312 176.691406 53.53125 180.132812 C 53.242188 182.851562 53.238281 185.480469 53.519531 187.949219 C 53.527344 188.074219 53.5625 188.214844 53.570312 188.339844 C 53.59375 188.503906 53.601562 188.632812 53.625 188.796875 C 53.648438 188.960938 53.667969 189.125 53.691406 189.289062 C 53.714844 189.453125 53.753906 189.65625 53.777344 189.820312 C 53.894531 190.488281 54.039062 191.167969 54.167969 191.808594 C 54.90625 195.308594 56.441406 198.898438 58.609375 202.167969 C 60.296875 204.738281 62.53125 207.203125 65.4375 209.671875 C 65.53125 209.527344 65.660156 209.367188 65.777344 209.230469 C 65.910156 209.070312 66.066406 208.921875 66.195312 208.757812 C 66.410156 208.542969 66.601562 208.3125 66.832031 208.132812 C 67.386719 207.78125 67.917969 207.542969 68.605469 207.527344 C 70.285156 207.5 71.644531 208.445312 73.046875 209.226562 C 73.902344 209.683594 74.769531 210.113281 75.640625 210.546875 C 77.414062 211.390625 79.175781 212.265625 80.992188 213.003906 C 82.65625 213.679688 84.324219 214.265625 86.023438 214.769531 C 86.945312 215.007812 87.839844 215.078125 88.765625 215.164062 C 89.898438 215.179688 91.003906 215.125 92.152344 214.902344 C 92.679688 214.753906 93.203125 214.605469 93.699219 214.382812 C 93.746094 214.28125 93.753906 214.191406 93.796875 214.085938 C 94.097656 213.378906 94.738281 212.816406 95.542969 212.664062 C 96.085938 212.554688 96.589844 212.457031 97.117188 212.3125 C 97.878906 212.046875 98.613281 211.773438 99.316406 211.421875 C 100.023438 211.074219 100.6875 210.675781 101.363281 210.25 C 102.328125 209.578125 103.25 208.859375 104.175781 208.136719 C 105.015625 207.472656 105.796875 206.722656 106.621094 206.023438 C 107.445312 205.320312 108.320312 204.644531 109.128906 203.902344 C 109.769531 203.339844 110.410156 202.777344 111.121094 202.339844 C 111.550781 202.058594 111.984375 201.839844 112.453125 201.605469 C 112.492188 201.59375 112.492188 201.59375 112.527344 201.578125 C 112.527344 201.578125 112.539062 201.550781 112.539062 201.550781 C 112.652344 201.351562 112.757812 201.179688 112.875 200.980469 C 112.917969 200.878906 112.953125 200.796875 113.023438 200.703125 C 113.03125 200.679688 113.042969 200.652344 113.054688 200.625 C 113.066406 200.601562 113.066406 200.601562 113.078125 200.574219 C 113.089844 200.546875 113.101562 200.523438 113.109375 200.496094 C 113.121094 200.46875 113.132812 200.441406 113.144531 200.417969 C 113.402344 199.878906 113.664062 199.339844 113.925781 198.800781 C 113.933594 198.773438 113.933594 198.773438 113.945312 198.746094 C 113.957031 198.722656 113.96875 198.695312 113.992188 198.644531 C 114.125 198.328125 114.269531 197.988281 114.402344 197.675781 C 114.511719 197.414062 114.625 197.152344 114.734375 196.886719 C 115.03125 196.117188 115.328125 195.347656 115.625 194.578125 C 115.777344 194.148438 115.957031 193.726562 116.117188 193.269531 C 116.152344 193.191406 116.195312 193.089844 116.203125 193 C 116.214844 192.972656 116.199219 192.933594 116.210938 192.910156 C 116.214844 192.753906 116.242188 192.613281 116.246094 192.460938 C 116.1875 191.941406 116.105469 191.410156 116.019531 190.878906 C 115.917969 190.25 115.816406 189.617188 115.738281 189 C 115.707031 188.707031 115.6875 188.390625 115.667969 188.070312 C 115.34375 187.746094 115.097656 187.304688 115.027344 186.8125 C 114.921875 186.117188 114.777344 185.4375 114.707031 184.726562 C 114.628906 184.042969 114.574219 183.371094 114.53125 182.671875 C 114.472656 181.9375 114.382812 181.125 114.503906 180.40625 C 114.625 179.683594 114.796875 178.984375 115.007812 178.269531 C 115.054688 178.164062 115.070312 178.050781 115.117188 177.945312 C 115.160156 177.839844 115.191406 177.699219 115.234375 177.59375 C 115.234375 177.59375 115.246094 177.566406 115.246094 177.566406 C 115.269531 177.515625 115.28125 177.488281 115.300781 177.4375 C 115.367188 177.277344 115.472656 177.105469 115.550781 176.921875 C 115.6875 176.671875 115.824219 176.421875 116.003906 176.21875 C 116.125 176.085938 116.242188 175.949219 116.351562 175.839844 C 116.253906 175.492188 116.152344 175.140625 116.054688 174.789062 C 115.921875 174.300781 115.792969 173.8125 115.648438 173.347656 C 115.535156 172.960938 115.394531 172.558594 115.253906 172.160156 C 115.117188 171.761719 115.003906 171.375 114.863281 170.972656 C 114.863281 170.972656 114.847656 170.9375 114.820312 170.925781 C 114.777344 170.8125 114.757812 170.710938 114.710938 170.601562 C 114.609375 170.402344 114.523438 170.242188 114.421875 170.046875 C 113.300781 167.589844 111.953125 165.164062 110.375 162.761719 C 109.25 161.046875 107.929688 159.496094 106.902344 158.347656 C 105.640625 156.949219 104.207031 155.597656 102.589844 154.382812 C 101.117188 153.261719 99.476562 152.320312 97.722656 151.574219 C 96.910156 151.445312 95.960938 151.136719 94.910156 150.84375 Z M 78.933594 169.097656 C 78.8125 169.386719 78.648438 169.625 78.433594 169.84375 C 78.421875 169.867188 78.382812 169.882812 78.347656 169.898438 C 78.25 169.980469 78.164062 170.035156 78.078125 170.09375 C 78.039062 170.109375 78.027344 170.132812 77.992188 170.148438 C 77.867188 170.222656 77.757812 170.265625 77.632812 170.335938 C 77.632812 170.335938 77.632812 170.335938 77.597656 170.351562 C 77.445312 170.414062 77.308594 170.445312 77.171875 170.480469 C 77.144531 170.46875 77.132812 170.496094 77.105469 170.484375 C 76.980469 170.492188 76.878906 170.511719 76.753906 170.519531 C 76.726562 170.507812 76.6875 170.523438 76.664062 170.511719 C 76.546875 170.496094 76.421875 170.503906 76.304688 170.484375 C 76.277344 170.472656 76.242188 170.488281 76.214844 170.476562 C 76.074219 170.445312 75.929688 170.417969 75.785156 170.324219 C 75.183594 170.070312 74.769531 169.585938 74.542969 169.023438 C 74.378906 168.613281 74.335938 168.132812 74.433594 167.679688 C 74.464844 167.539062 74.503906 167.371094 74.570312 167.210938 C 74.625 167.082031 74.707031 166.960938 74.789062 166.84375 C 74.800781 166.816406 74.851562 166.773438 74.859375 166.75 C 74.933594 166.65625 75.003906 166.5625 75.089844 166.503906 C 75.097656 166.480469 75.136719 166.464844 75.148438 166.4375 C 75.257812 166.328125 75.351562 166.246094 75.476562 166.175781 C 75.597656 166.105469 75.722656 166.03125 75.832031 165.988281 C 75.871094 165.972656 75.910156 165.957031 75.910156 165.957031 C 76.019531 165.910156 76.121094 165.894531 76.257812 165.859375 C 76.285156 165.871094 76.296875 165.84375 76.324219 165.855469 C 76.761719 165.761719 77.238281 165.8125 77.683594 166 C 78.574219 166.378906 79.113281 167.289062 79.09375 168.207031 C 79.136719 168.472656 79.066406 168.78125 78.933594 169.097656 Z M 78.933594 169.097656 " fill-opacity="1" fill-rule="nonzero"/></g></g></g><g clip-path="url(#46e584fa27)"><g clip-path="url(#4ea3411053)"><g clip-path="url(#79b8adde24)"><path fill="#d0d2d3" d="M 89.996094 181.554688 C 89.929688 181.558594 89.894531 181.574219 89.832031 181.578125 C 89.867188 181.5625 89.929688 181.558594 89.996094 181.554688 Z M 89.996094 181.554688 " fill-opacity="1" fill-rule="nonzero"/></g></g></g><g clip-path="url(#0509e2a698)"><g clip-path="url(#15aac5d2cd)"><g clip-path="url(#923c99215a)"><path fill="#d0d2d3" d="M 114.992188 174.675781 C 114.964844 174.664062 114.9375 174.652344 114.925781 174.679688 C 114.925781 174.679688 114.953125 174.691406 114.992188 174.675781 Z M 114.992188 174.675781 " fill-opacity="1" fill-rule="nonzero"/></g></g></g><g clip-path="url(#cb2323e9a2)"><g clip-path="url(#bd28969970)"><g clip-path="url(#14a1725190)"><path fill="#d0d2d3" d="M 115.484375 174.390625 C 115.433594 174.433594 115.386719 174.472656 115.335938 174.515625 C 115.386719 174.472656 115.433594 174.433594 115.484375 174.390625 Z M 115.484375 174.390625 " fill-opacity="1" fill-rule="nonzero"/></g></g></g><g clip-path="url(#e442674452)"><g clip-path="url(#a4066a16e1)"><g clip-path="url(#0d2afdba09)"><path fill="#d0d2d3" d="M 107.042969 195.566406 C 106.980469 195.570312 106.914062 195.574219 106.878906 195.589844 C 106.929688 195.613281 106.96875 195.597656 107.042969 195.566406 Z M 107.042969 195.566406 " fill-opacity="1" fill-rule="nonzero"/></g></g></g><g clip-path="url(#649dedfffc)"><g clip-path="url(#7a95aefa1e)"><g clip-path="url(#9e3c82d3bf)"><path fill="#ffde59" d="M 64.152344 201.121094 C 63.992188 201.578125 63.871094 202.082031 63.789062 202.636719 C 63.71875 203.53125 63.707031 204.425781 63.816406 205.335938 C 63.996094 206.589844 64.277344 207.820312 64.617188 208.984375 C 65.25 209.53125 65.925781 210.128906 66.648438 210.683594 C 68.164062 211.914062 69.835938 212.996094 71.285156 213.953125 L 71.339844 213.972656 C 72.136719 214.496094 72.824219 214.914062 73.433594 215.296875 L 77.75 217.871094 L 78.269531 218.183594 L 78.785156 218.496094 L 79.078125 218.683594 L 79.394531 218.878906 L 79.6875 219.066406 C 80.730469 219.664062 82.199219 220.503906 83.5 221.367188 C 84.699219 222.183594 85.757812 223.035156 86.714844 223.84375 C 86.714844 223.84375 86.75 223.828125 86.777344 223.839844 C 86.804688 223.851562 86.832031 223.863281 86.855469 223.875 C 87.515625 224.433594 88.117188 225.058594 88.667969 225.726562 C 89.234375 226.429688 89.734375 227.136719 90.179688 227.914062 C 90.550781 228.566406 90.886719 229.234375 91.15625 229.90625 C 91.445312 230.613281 91.703125 231.3125 91.890625 232.039062 C 92.074219 232.769531 92.222656 233.511719 92.308594 234.257812 C 92.390625 235.003906 92.414062 235.753906 92.371094 236.511719 C 92.328125 237.265625 92.195312 238.011719 92.011719 238.738281 C 92 238.765625 91.976562 238.816406 91.992188 238.855469 C 91.992188 238.855469 91.992188 238.855469 91.980469 238.878906 C 91.96875 238.90625 91.96875 238.90625 91.960938 238.933594 C 91.953125 239.023438 91.957031 239.085938 91.949219 239.175781 C 91.953125 239.238281 91.941406 239.265625 91.957031 239.304688 C 91.945312 239.328125 91.972656 239.339844 91.960938 239.367188 C 91.949219 239.394531 91.976562 239.402344 91.964844 239.429688 C 91.964844 239.429688 91.953125 239.457031 91.980469 239.46875 C 91.996094 239.503906 91.984375 239.53125 92 239.566406 C 92.027344 239.644531 92.058594 239.71875 92.089844 239.792969 C 92.121094 239.867188 92.160156 239.914062 92.191406 239.988281 C 92.230469 240.039062 92.261719 240.113281 92.304688 240.160156 C 92.304688 240.160156 92.304688 240.160156 92.328125 240.171875 C 92.410156 240.269531 92.503906 240.339844 92.625 240.421875 C 92.625 240.421875 92.597656 240.410156 92.597656 240.410156 C 92.667969 240.46875 92.71875 240.492188 92.796875 240.527344 C 92.875 240.558594 92.929688 240.582031 93.007812 240.613281 C 93.058594 240.636719 93.097656 240.621094 93.121094 240.632812 C 93.210938 240.640625 93.277344 240.636719 93.300781 240.648438 C 93.367188 240.644531 93.429688 240.640625 93.492188 240.636719 C 93.65625 240.613281 93.804688 240.550781 93.972656 240.53125 L 94.230469 240.425781 L 94.457031 240.332031 L 94.722656 240.136719 C 96.960938 238.585938 99.136719 236.882812 101.242188 235.054688 C 102.164062 234.269531 103.25 233.3125 104.28125 232.265625 C 105.136719 231.421875 106.007812 230.464844 106.960938 229.382812 C 108.417969 227.625 109.621094 226.03125 110.59375 224.46875 C 111.070312 223.710938 111.542969 222.890625 112.003906 222.097656 L 112.210938 221.753906 C 113.207031 220.136719 114.117188 218.359375 115.023438 216.300781 L 115.132812 216.039062 C 116.523438 212.765625 117.542969 209.054688 118.144531 204.953125 C 118.214844 204.488281 118.273438 203.988281 118.347656 203.523438 C 118.449219 202.917969 118.523438 202.238281 118.632812 201.542969 C 118.703125 200.644531 118.785156 199.660156 118.800781 198.675781 C 118.824219 197.820312 118.855469 196.9375 118.867188 196.046875 C 118.875 192.894531 118.699219 189.667969 118.335938 186.453125 C 117.996094 183.464844 117.507812 180.539062 116.894531 177.835938 C 116.722656 177.144531 116.554688 176.453125 116.398438 175.800781 C 116.359375 175.75 116.289062 175.691406 116.25 175.644531 C 116.210938 175.660156 116.210938 175.660156 116.175781 175.671875 C 116.050781 175.746094 115.964844 175.800781 115.84375 175.871094 C 115.746094 175.957031 115.648438 176.039062 115.550781 176.121094 C 115.394531 176.269531 115.265625 176.429688 115.125 176.617188 C 115.03125 176.765625 114.910156 176.898438 114.832031 177.082031 C 114.394531 177.824219 114.078125 178.648438 113.847656 179.476562 C 113.710938 179.945312 113.625 180.433594 113.542969 180.925781 C 113.425781 182.359375 113.390625 183.828125 113.351562 185.230469 L 113.332031 185.347656 C 113.304688 186.355469 113.277344 187.367188 113.214844 188.390625 L 113.210938 188.542969 C 113.121094 189.988281 113.039062 191.5 112.746094 192.984375 L 112.660156 193.410156 C 112.5625 193.925781 112.457031 194.46875 112.273438 194.976562 C 112.140625 195.355469 112.039062 195.742188 111.882812 196.109375 C 111.792969 196.320312 111.703125 196.527344 111.574219 196.6875 C 111.078125 197.496094 110.03125 198.941406 108.441406 199.40625 C 107.203125 199.777344 105.792969 199.675781 104.496094 199.089844 C 103.300781 198.554688 102.265625 197.710938 101.203125 196.363281 C 100.441406 195.390625 99.699219 194.367188 99.007812 193.234375 L 97.179688 190.328125 C 96.828125 189.777344 96.460938 189.1875 96.105469 188.632812 L 95.714844 188.035156 L 95.261719 187.347656 C 94.75 186.667969 94.203125 186.0625 93.582031 185.554688 C 93.378906 185.375 93.167969 185.222656 92.980469 185.082031 C 92.875 185.035156 92.78125 184.964844 92.675781 184.921875 C 92.363281 184.789062 92.011719 184.667969 91.664062 184.613281 C 91.519531 184.585938 91.367188 184.582031 91.214844 184.578125 C 91.125 184.570312 91.0625 184.574219 91 184.578125 C 90.796875 184.617188 90.59375 184.65625 90.429688 184.675781 C 90.28125 184.738281 90.144531 184.773438 89.996094 184.832031 C 89.84375 184.890625 89.722656 184.964844 89.5625 185.050781 C 89.425781 185.148438 89.277344 185.207031 89.144531 185.304688 C 89.058594 185.363281 88.960938 185.445312 88.863281 185.527344 C 88.792969 185.621094 88.722656 185.714844 88.691406 185.792969 C 88.597656 185.9375 88.507812 186.148438 88.441406 186.304688 C 88.351562 186.515625 88.300781 186.710938 88.222656 186.894531 C 88.117188 187.28125 88.015625 187.671875 87.976562 188.054688 C 87.925781 188.464844 87.882812 188.851562 87.847656 189.300781 C 87.824219 189.722656 87.839844 190.191406 87.878906 190.609375 C 88.273438 192.882812 89.011719 195.078125 89.703125 197.230469 L 89.859375 197.667969 L 90.09375 198.351562 L 90.167969 198.539062 C 90.519531 199.679688 90.921875 200.839844 91.199219 202.007812 C 91.464844 203.203125 91.617188 204.226562 91.640625 205.191406 C 91.664062 206.441406 91.484375 207.445312 91.109375 208.335938 L 91.074219 208.414062 C 90.828125 208.992188 90.527344 209.480469 90.144531 209.875 C 89.90625 210.144531 89.652344 210.378906 89.300781 210.628906 C 89.152344 210.753906 88.980469 210.863281 88.796875 210.941406 C 88.300781 211.164062 87.738281 211.386719 87.132812 211.503906 C 86.566406 211.601562 86.042969 211.59375 85.464844 211.503906 C 83.070312 211.105469 81.097656 209.554688 79.828125 208.398438 C 78.925781 207.613281 78.09375 206.734375 77.296875 205.839844 C 76.984375 205.488281 76.707031 205.125 76.390625 204.773438 L 76.25 204.589844 C 75.878906 204.15625 75.535156 203.730469 75.164062 203.292969 C 75 203.101562 74.835938 202.90625 74.667969 202.714844 L 74.460938 202.472656 C 74.050781 201.988281 73.570312 201.441406 73.078125 200.925781 C 72.480469 200.300781 71.789062 199.667969 70.921875 199.019531 C 70.425781 198.65625 69.976562 198.402344 69.515625 198.175781 C 69.246094 198.089844 68.960938 198.03125 68.648438 197.960938 C 68.265625 197.921875 67.859375 197.933594 67.449219 197.945312 C 67.25 197.984375 67.074219 198.035156 66.886719 198.109375 C 66.605469 198.265625 66.320312 198.425781 66.015625 198.636719 C 65.578125 199.007812 65.195312 199.398438 64.863281 199.816406 C 64.585938 200.253906 64.371094 200.6875 64.152344 201.121094 Z M 113.84375 179.414062 C 113.832031 179.441406 113.832031 179.441406 113.84375 179.414062 C 113.832031 179.441406 113.832031 179.441406 113.84375 179.414062 Z M 113.84375 179.414062 " fill-opacity="1" fill-rule="nonzero"/></g></g></g><g clip-path="url(#bf6ada50dd)"><g clip-path="url(#e516f217cb)"><g clip-path="url(#4486071192)"><path fill="#d0d2d3" d="M 23.824219 70.902344 C 23.722656 71.136719 23.632812 71.347656 23.535156 71.582031 C 23.160156 72.539062 22.855469 73.613281 22.597656 74.804688 C 22.402344 75.769531 22.238281 76.8125 22.121094 77.96875 C 22.019531 79.007812 21.96875 80.070312 21.941406 81.230469 C 21.914062 83.261719 22.03125 85.382812 22.308594 87.789062 C 22.566406 89.875 22.914062 92.035156 23.414062 94.347656 C 23.863281 96.425781 24.402344 98.507812 25.050781 100.761719 C 26.234375 104.820312 27.78125 109.03125 29.640625 113.316406 C 31.339844 117.25 33.320312 121.246094 35.550781 125.164062 C 37.773438 129.105469 40.203125 132.917969 42.808594 136.53125 C 43.746094 137.824219 44.691406 139.09375 45.644531 140.332031 C 46.105469 140.929688 46.550781 141.550781 47.023438 142.1875 C 47.742188 143.261719 48.464844 144.25 49.195312 145.148438 C 49.320312 145.292969 49.457031 145.476562 49.582031 145.621094 C 50.121094 146.316406 50.679688 147.046875 51.234375 147.777344 C 54.257812 151.71875 57.210938 155.386719 59.734375 158.40625 C 60.660156 159.570312 61.636719 160.761719 62.617188 161.949219 C 64.214844 163.863281 65.886719 165.75 67.75 167.839844 L 68.132812 168.25 L 68.230469 168.382812 C 68.359375 168.59375 68.488281 168.800781 68.613281 169.011719 C 68.78125 169.265625 69.015625 169.519531 69.273438 169.785156 C 69.519531 170.011719 69.789062 170.25 70.121094 170.484375 C 70.71875 170.894531 71.414062 171.21875 72.207031 171.464844 C 72.898438 171.664062 73.617188 171.785156 74.4375 171.824219 C 75.140625 171.84375 75.875 171.785156 76.671875 171.660156 C 77.375 171.527344 78.113281 171.316406 78.871094 170.988281 C 79.507812 170.730469 80.148438 170.386719 80.75 169.992188 C 81.558594 169.46875 82.285156 168.851562 82.914062 168.097656 C 83.519531 167.398438 84.042969 166.601562 84.425781 165.773438 L 84.480469 165.640625 C 84.625 165.300781 84.746094 164.949219 84.847656 164.5625 C 84.953125 164.171875 85.027344 163.773438 85.050781 163.285156 L 85.070312 163.234375 L 85.0625 163.105469 L 85.058594 163.042969 C 85.074219 162.648438 85.0625 162.238281 84.996094 161.8125 C 84.933594 161.382812 84.789062 160.917969 84.609375 160.46875 C 84.085938 157.621094 83.472656 154.703125 82.726562 151.511719 C 82.011719 148.390625 81.199219 145.203125 80.273438 141.78125 C 78.570312 135.460938 76.644531 129.078125 74.359375 122.234375 C 73.132812 118.496094 71.816406 114.753906 70.460938 111.027344 L 70.277344 110.515625 L 70.246094 110.441406 L 70.21875 110.367188 L 70.078125 109.964844 L 70 109.714844 L 69.90625 109.429688 L 69.753906 109.054688 L 69.707031 108.945312 L 69.695312 108.90625 C 69.644531 108.730469 69.585938 108.582031 69.496094 108.421875 L 69.433594 108.207031 C 69.160156 107.472656 68.898438 106.777344 68.613281 106.066406 L 68.582031 105.992188 L 68.460938 105.695312 L 68.417969 105.582031 L 68.371094 105.46875 C 68.160156 104.949219 67.960938 104.398438 67.75 103.875 L 67.609375 103.476562 L 67.460938 103.105469 L 67.183594 102.367188 C 64.164062 94.347656 60.78125 87.53125 56.816406 81.582031 C 54.804688 78.53125 52.457031 75.617188 49.660156 72.664062 C 48.121094 71.054688 46.777344 69.773438 45.4375 68.707031 C 44.097656 67.644531 42.4375 66.597656 40.359375 65.53125 C 39.472656 65.0625 38.546875 64.699219 37.558594 64.402344 C 37.53125 64.390625 37.507812 64.378906 37.46875 64.394531 C 37.46875 64.394531 37.378906 64.386719 37.378906 64.386719 C 36.925781 64.289062 36.488281 64.226562 36.066406 64.203125 C 35.566406 64.144531 35.109375 64.132812 34.683594 64.109375 C 33.972656 64.113281 33.308594 64.144531 32.714844 64.230469 C 32.160156 64.304688 31.554688 64.417969 31.003906 64.554688 C 30.449219 64.691406 29.9375 64.875 29.464844 65.042969 C 28.980469 65.242188 28.511719 65.472656 28.039062 65.707031 C 27.671875 65.921875 27.375 66.105469 27.109375 66.300781 C 26.800781 66.511719 26.511719 66.757812 26.257812 66.992188 L 26.335938 67.023438 C 26.335938 67.023438 26.289062 67.066406 26.289062 67.066406 L 26.191406 67.148438 C 26.191406 67.148438 26.144531 67.1875 26.144531 67.1875 L 26.09375 67.230469 L 25.976562 67.363281 C 25.9375 67.378906 25.914062 67.433594 25.878906 67.449219 C 25.738281 67.632812 25.558594 67.835938 25.40625 68.050781 C 25.335938 68.144531 25.265625 68.238281 25.195312 68.332031 C 25.03125 68.570312 24.878906 68.785156 24.738281 69.035156 C 24.441406 69.589844 24.125 70.195312 23.824219 70.902344 Z M 23.824219 70.902344 " fill-opacity="1" fill-rule="nonzero"/></g></g></g><g clip-path="url(#53fef33943)"><g clip-path="url(#b3b263a285)"><g clip-path="url(#398857539d)"><path fill="#ffffff" d="M 31.078125 104.835938 C 30.707031 105.855469 30.777344 106.996094 31.234375 107.964844 C 31.707031 109.03125 32.566406 109.703125 33.613281 110.148438 C 35.707031 111.039062 38.210938 109.660156 38.925781 107.613281 C 39.296875 106.597656 39.226562 105.453125 38.769531 104.488281 C 38.296875 103.421875 37.4375 102.746094 36.390625 102.300781 C 34.296875 101.414062 31.78125 102.816406 31.078125 104.835938 Z M 31.078125 104.835938 " fill-opacity="1" fill-rule="nonzero"/></g></g></g><g clip-path="url(#7c49de4358)"><g clip-path="url(#f87f6e3f34)"><g clip-path="url(#f62f4aecd1)"><path fill="#ffffff" d="M 34.625 87.175781 C 33.105469 86.53125 31.167969 86.726562 29.703125 87.40625 C 28.128906 88.128906 26.863281 89.507812 26.289062 91.148438 C 25.738281 92.738281 25.8125 94.53125 26.519531 96.066406 C 27.296875 97.726562 28.613281 98.78125 30.261719 99.480469 C 31.78125 100.128906 33.71875 99.929688 35.183594 99.253906 C 36.757812 98.53125 38.023438 97.152344 38.597656 95.511719 C 39.148438 93.921875 39.074219 92.128906 38.367188 90.589844 C 37.613281 88.941406 36.300781 87.886719 34.625 87.175781 Z M 34.625 87.175781 " fill-opacity="1" fill-rule="nonzero"/></g></g></g><g fill="#ffde59" fill-opacity="1"><g transform="translate(3.461603, 334.018254)"><g><path d="M 113.921875 -51.921875 C 113.921875 -46.648438 114.023438 -39.570312 114.234375 -30.6875 C 114.441406 -21.800781 114.546875 -14.878906 114.546875 -9.921875 C 114.546875 -6.410156 113.5625 -3.695312 111.59375 -1.78125 C 109.632812 0.125 106.898438 1.078125 103.390625 1.078125 C 99.867188 1.078125 97.078125 0.148438 95.015625 -1.703125 C 92.953125 -3.566406 91.921875 -6.046875 91.921875 -9.140625 L 91.921875 -51 C 91.921875 -61.125 91.609375 -69 90.984375 -74.625 C 90.367188 -80.257812 89.59375 -83.078125 88.65625 -83.078125 C 87.832031 -83.078125 86.59375 -80.90625 84.9375 -76.5625 C 83.28125 -72.226562 81.832031 -67.941406 80.59375 -63.703125 C 78.84375 -57.921875 77.035156 -51.207031 75.171875 -43.5625 C 74.453125 -40.769531 73.054688 -38.703125 70.984375 -37.359375 C 68.921875 -36.015625 66.1875 -35.34375 62.78125 -35.34375 C 55.851562 -35.34375 51.664062 -37.875 50.21875 -42.9375 L 48.359375 -49.59375 C 46.910156 -54.863281 45.410156 -59.773438 43.859375 -64.328125 C 42.617188 -67.941406 41.066406 -71.96875 39.203125 -76.40625 C 37.347656 -80.851562 36.164062 -83.078125 35.65625 -83.078125 C 35.03125 -83.078125 34.5625 -80.207031 34.25 -74.46875 C 33.945312 -68.738281 33.691406 -61.117188 33.484375 -51.609375 C 33.378906 -47.890625 33.328125 -42.929688 33.328125 -36.734375 L 33.484375 -8.828125 C 33.484375 -6.046875 32.445312 -3.800781 30.375 -2.09375 C 28.3125 -0.382812 25.472656 0.46875 21.859375 0.46875 C 18.335938 0.46875 15.617188 -0.457031 13.703125 -2.3125 C 11.796875 -4.175781 10.84375 -7.382812 10.84375 -11.9375 L 11 -31.46875 C 11.207031 -40.144531 11.3125 -47.015625 11.3125 -52.078125 C 11.3125 -66.128906 12.035156 -77.414062 13.484375 -85.9375 C 14.929688 -94.46875 17.203125 -100.695312 20.296875 -104.625 C 23.398438 -108.550781 27.484375 -110.515625 32.546875 -110.515625 C 38.640625 -110.515625 43.675781 -108.082031 47.65625 -103.21875 C 51.632812 -98.363281 54.628906 -92.890625 56.640625 -86.796875 C 58.660156 -80.703125 60.601562 -73.46875 62.46875 -65.09375 C 64.425781 -73.15625 66.539062 -80.3125 68.8125 -86.5625 C 71.09375 -92.8125 74.269531 -98.363281 78.34375 -103.21875 C 82.425781 -108.082031 87.414062 -110.515625 93.3125 -110.515625 C 98.6875 -110.515625 102.867188 -108.265625 105.859375 -103.765625 C 108.859375 -99.273438 110.953125 -92.816406 112.140625 -84.390625 C 113.328125 -75.972656 113.921875 -65.148438 113.921875 -51.921875 Z M 113.921875 -51.921875 "/></g></g></g><g fill="#ff3131" fill-opacity="1"><g transform="translate(131.244673, 334.018254)"><g><path d="M 82.765625 -17.203125 C 84.734375 -16.890625 86.257812 -16.164062 87.34375 -15.03125 C 88.425781 -13.894531 88.96875 -11.878906 88.96875 -8.984375 C 88.96875 -6.503906 88.320312 -4.382812 87.03125 -2.625 C 85.738281 -0.875 84.007812 0 81.84375 0 C 77.394531 0 73.984375 -0.539062 71.609375 -1.625 C 69.234375 -2.707031 67.0625 -4.695312 65.09375 -7.59375 C 62.820312 -4.1875 59.722656 -1.785156 55.796875 -0.390625 C 51.867188 1.003906 47.269531 1.703125 42 1.703125 C 30.320312 1.703125 21.4375 -1.648438 15.34375 -8.359375 C 9.25 -15.078125 6.203125 -24.429688 6.203125 -36.421875 C 6.203125 -44.273438 7.800781 -51.25 11 -57.34375 C 14.207031 -63.445312 18.675781 -68.203125 24.40625 -71.609375 C 30.144531 -75.015625 36.734375 -76.71875 44.171875 -76.71875 C 47.890625 -76.71875 51.347656 -75.992188 54.546875 -74.546875 C 57.753906 -73.109375 60.1875 -71.195312 61.84375 -68.8125 L 62.15625 -70.828125 C 62.363281 -72.273438 63.191406 -73.488281 64.640625 -74.46875 C 66.085938 -75.457031 68.359375 -75.953125 71.453125 -75.953125 C 74.765625 -75.953125 77.191406 -75.28125 78.734375 -73.9375 C 80.285156 -72.59375 81.0625 -70.882812 81.0625 -68.8125 C 81.0625 -68.09375 81.007812 -67.523438 80.90625 -67.109375 C 80.289062 -63.597656 79.671875 -57.707031 79.046875 -49.4375 C 78.734375 -45.613281 78.578125 -40.707031 78.578125 -34.71875 L 78.578125 -26.96875 C 78.578125 -23.96875 78.835938 -21.664062 79.359375 -20.0625 C 79.878906 -18.46875 81.015625 -17.515625 82.765625 -17.203125 Z M 56.890625 -27.90625 C 56.992188 -32.132812 57.046875 -38.691406 57.046875 -47.578125 C 57.046875 -51.097656 55.878906 -53.96875 53.546875 -56.1875 C 51.222656 -58.40625 48.253906 -59.515625 44.640625 -59.515625 C 39.992188 -59.515625 36.171875 -57.367188 33.171875 -53.078125 C 30.171875 -48.796875 28.671875 -43.296875 28.671875 -36.578125 C 28.671875 -30.171875 30.015625 -25.054688 32.703125 -21.234375 C 35.390625 -17.410156 39.007812 -15.5 43.5625 -15.5 C 47.789062 -15.5 51.039062 -16.554688 53.3125 -18.671875 C 55.59375 -20.796875 56.785156 -23.875 56.890625 -27.90625 Z M 56.890625 -27.90625 "/></g></g></g><g fill="#8c52ff" fill-opacity="1"><g transform="translate(216.633922, 334.018254)"><g><path d="M 54.40625 -30.84375 C 57.8125 -30.84375 60.289062 -30.171875 61.84375 -28.828125 C 63.394531 -27.484375 64.171875 -25.3125 64.171875 -22.3125 C 64.171875 -15.5 62 -10.023438 57.65625 -5.890625 C 53.320312 -1.753906 47.847656 0.3125 41.234375 0.3125 C 32.242188 0.3125 25.679688 -3.328125 21.546875 -10.609375 C 17.410156 -17.898438 15.34375 -29.453125 15.34375 -45.265625 C 15.34375 -50.015625 15.394531 -53.472656 15.5 -55.640625 C 14.78125 -55.742188 13.59375 -55.796875 11.9375 -55.796875 C 6.039062 -55.898438 3.09375 -58.742188 3.09375 -64.328125 C 3.09375 -67.222656 3.84375 -69.390625 5.34375 -70.828125 C 6.84375 -72.273438 9.503906 -72.945312 13.328125 -72.84375 L 16.734375 -72.6875 C 17.460938 -79.101562 18.65625 -86.957031 20.3125 -96.25 C 20.71875 -98.726562 21.875 -100.613281 23.78125 -101.90625 C 25.695312 -103.195312 28.15625 -103.84375 31.15625 -103.84375 C 34.664062 -103.84375 37.398438 -103.015625 39.359375 -101.359375 C 41.328125 -99.710938 42.3125 -97.703125 42.3125 -95.328125 L 42.15625 -94.078125 L 41.390625 -89.125 C 40.148438 -80.65625 39.320312 -74.867188 38.90625 -71.765625 C 42.414062 -71.554688 45.101562 -71.453125 46.96875 -71.453125 C 52.238281 -71.347656 54.875 -68.609375 54.875 -63.234375 C 54.875 -60.546875 54.148438 -58.53125 52.703125 -57.1875 C 51.253906 -55.851562 48.828125 -55.1875 45.421875 -55.1875 L 37.671875 -55.1875 C 37.566406 -53.113281 37.515625 -49.804688 37.515625 -45.265625 C 37.515625 -37.617188 37.691406 -31.753906 38.046875 -27.671875 C 38.410156 -23.585938 38.953125 -20.820312 39.671875 -19.375 C 40.398438 -17.925781 41.332031 -17.203125 42.46875 -17.203125 C 43.914062 -17.203125 44.84375 -17.664062 45.25 -18.59375 C 45.664062 -19.53125 45.875 -21.1875 45.875 -23.5625 C 45.875 -28.414062 48.71875 -30.84375 54.40625 -30.84375 Z M 54.40625 -30.84375 "/></g></g></g><g fill="#5271ff" fill-opacity="1"><g transform="translate(293.319716, 334.018254)"><g><path d="M 26.1875 -80.90625 C 22.0625 -80.90625 18.679688 -82.222656 16.046875 -84.859375 C 13.410156 -87.492188 12.09375 -90.828125 12.09375 -94.859375 C 12.09375 -98.890625 13.410156 -102.171875 16.046875 -104.703125 C 18.679688 -107.234375 22.113281 -108.5 26.34375 -108.5 C 30.476562 -108.5 33.835938 -107.234375 36.421875 -104.703125 C 39.003906 -102.171875 40.296875 -98.941406 40.296875 -95.015625 C 40.296875 -90.984375 38.976562 -87.625 36.34375 -84.9375 C 33.707031 -82.25 30.320312 -80.90625 26.1875 -80.90625 Z M 24.03125 -0.9375 C 20.71875 -0.9375 17.976562 -1.757812 15.8125 -3.40625 C 13.644531 -5.0625 12.609375 -7.285156 12.703125 -10.078125 L 13.953125 -67.265625 C 14.054688 -70.054688 15.140625 -72.253906 17.203125 -73.859375 C 19.273438 -75.460938 21.960938 -76.265625 25.265625 -76.265625 C 28.671875 -76.265625 31.457031 -75.4375 33.625 -73.78125 C 35.800781 -72.125 36.835938 -69.847656 36.734375 -66.953125 L 35.5 -9.921875 C 35.394531 -7.128906 34.28125 -4.929688 32.15625 -3.328125 C 30.039062 -1.734375 27.332031 -0.9375 24.03125 -0.9375 Z M 24.03125 -0.9375 "/></g></g></g><g fill="#00bf63" fill-opacity="1"><g transform="translate(336.16147, 334.018254)"><g><path d="M 69.90625 0.78125 C 67.53125 0.78125 64.789062 0.625 61.6875 0.3125 C 54.96875 -0.207031 50.007812 -0.46875 46.8125 -0.46875 C 42.257812 -0.46875 36.472656 -0.257812 29.453125 0.15625 C 25.421875 0.46875 22.0625 0.625 19.375 0.625 C 14.3125 0.625 10.59375 -0.125 8.21875 -1.625 C 5.84375 -3.125 4.65625 -5.164062 4.65625 -7.75 C 4.65625 -10.226562 5.894531 -12.707031 8.375 -15.1875 L 11.78125 -18.75 C 32.96875 -40.550781 46.609375 -54.554688 52.703125 -60.765625 C 51.972656 -60.660156 49.488281 -60.425781 45.25 -60.0625 C 41.019531 -59.695312 37.351562 -59.515625 34.25 -59.515625 C 31.875 -59.515625 29.1875 -59.644531 26.1875 -59.90625 C 23.195312 -60.164062 20.664062 -60.503906 18.59375 -60.921875 C 12.601562 -62.160156 9.609375 -65.3125 9.609375 -70.375 C 9.609375 -73.0625 10.332031 -75.28125 11.78125 -77.03125 C 13.226562 -78.789062 15.296875 -79.515625 17.984375 -79.203125 C 28.828125 -77.960938 37.554688 -77.34375 44.171875 -77.34375 C 47.992188 -77.34375 53.210938 -77.65625 59.828125 -78.28125 C 65.410156 -78.6875 69.179688 -78.890625 71.140625 -78.890625 C 75.691406 -78.890625 78.789062 -78.269531 80.4375 -77.03125 C 82.09375 -75.789062 82.921875 -73.929688 82.921875 -71.453125 C 82.921875 -67.523438 81.269531 -63.910156 77.96875 -60.609375 L 62 -44.796875 L 35.03125 -17.671875 L 39.828125 -17.828125 C 46.960938 -18.140625 51.046875 -18.296875 52.078125 -18.296875 C 55.179688 -18.296875 58.671875 -18.164062 62.546875 -17.90625 C 66.421875 -17.644531 69.441406 -17.304688 71.609375 -16.890625 C 76.253906 -15.960938 78.578125 -13.125 78.578125 -8.375 C 78.578125 -5.789062 77.851562 -3.617188 76.40625 -1.859375 C 74.96875 -0.0976562 72.800781 0.78125 69.90625 0.78125 Z M 69.90625 0.78125 "/></g></g></g></svg>