<svg xmlns="http://www.w3.org/2000/svg" xmlns:xlink="http://www.w3.org/1999/xlink" width="566" zoomAndPan="magnify" viewBox="0 0 425.25 425.249985" height="566" preserveAspectRatio="xMidYMid meet" version="1.0"><defs><g/><clipPath id="682bc38f49"><path d="M 136 276 L 168 276 L 168 310 L 136 310 Z M 136 276 " clip-rule="nonzero"/></clipPath><clipPath id="d483eb11bf"><path d="M 96.578125 296.589844 L 123.75 232.632812 L 187.707031 259.800781 L 160.535156 323.757812 Z M 96.578125 296.589844 " clip-rule="nonzero"/></clipPath><clipPath id="ac48c99ab3"><path d="M 96.578125 296.589844 L 123.75 232.632812 L 187.707031 259.800781 L 160.535156 323.757812 Z M 96.578125 296.589844 " clip-rule="nonzero"/></clipPath><clipPath id="ce219b44b6"><path d="M 154 292 L 155 292 L 155 293 L 154 293 Z M 154 292 " clip-rule="nonzero"/></clipPath><clipPath id="525e9380ac"><path d="M 96.578125 296.589844 L 123.75 232.632812 L 187.707031 259.800781 L 160.535156 323.757812 Z M 96.578125 296.589844 " clip-rule="nonzero"/></clipPath><clipPath id="dc44b5e7ec"><path d="M 96.578125 296.589844 L 123.75 232.632812 L 187.707031 259.800781 L 160.535156 323.757812 Z M 96.578125 296.589844 " clip-rule="nonzero"/></clipPath><clipPath id="c51bff390b"><path d="M 167 289 L 168 289 L 168 290 L 167 290 Z M 167 289 " clip-rule="nonzero"/></clipPath><clipPath id="da7cfc971d"><path d="M 96.578125 296.589844 L 123.75 232.632812 L 187.707031 259.800781 L 160.535156 323.757812 Z M 96.578125 296.589844 " clip-rule="nonzero"/></clipPath><clipPath id="a401b01227"><path d="M 96.578125 296.589844 L 123.75 232.632812 L 187.707031 259.800781 L 160.535156 323.757812 Z M 96.578125 296.589844 " clip-rule="nonzero"/></clipPath><clipPath id="fda9a95f83"><path d="M 167 288 L 168 288 L 168 290 L 167 290 Z M 167 288 " clip-rule="nonzero"/></clipPath><clipPath id="b10323fe2a"><path d="M 96.578125 296.589844 L 123.75 232.632812 L 187.707031 259.800781 L 160.535156 323.757812 Z M 96.578125 296.589844 " clip-rule="nonzero"/></clipPath><clipPath id="a31b786cbf"><path d="M 96.578125 296.589844 L 123.75 232.632812 L 187.707031 259.800781 L 160.535156 323.757812 Z M 96.578125 296.589844 " clip-rule="nonzero"/></clipPath><clipPath id="d61af2bed8"><path d="M 163 299 L 164 299 L 164 300 L 163 300 Z M 163 299 " clip-rule="nonzero"/></clipPath><clipPath id="ad4b58e2c1"><path d="M 96.578125 296.589844 L 123.75 232.632812 L 187.707031 259.800781 L 160.535156 323.757812 Z M 96.578125 296.589844 " clip-rule="nonzero"/></clipPath><clipPath id="96bf737301"><path d="M 96.578125 296.589844 L 123.75 232.632812 L 187.707031 259.800781 L 160.535156 323.757812 Z M 96.578125 296.589844 " clip-rule="nonzero"/></clipPath><clipPath id="09c0274fc9"><path d="M 141 289 L 170 289 L 170 322 L 141 322 Z M 141 289 " clip-rule="nonzero"/></clipPath><clipPath id="8f0f2e05a6"><path d="M 96.578125 296.589844 L 123.75 232.632812 L 187.707031 259.800781 L 160.535156 323.757812 Z M 96.578125 296.589844 " clip-rule="nonzero"/></clipPath><clipPath id="58f1994013"><path d="M 96.578125 296.589844 L 123.75 232.632812 L 187.707031 259.800781 L 160.535156 323.757812 Z M 96.578125 296.589844 " clip-rule="nonzero"/></clipPath><clipPath id="754bbce0bc"><path d="M 120 234 L 153 234 L 153 288 L 120 288 Z M 120 234 " clip-rule="nonzero"/></clipPath><clipPath id="2129d1f088"><path d="M 96.578125 296.589844 L 123.75 232.632812 L 187.707031 259.800781 L 160.535156 323.757812 Z M 96.578125 296.589844 " clip-rule="nonzero"/></clipPath><clipPath id="af15f08738"><path d="M 96.578125 296.589844 L 123.75 232.632812 L 187.707031 259.800781 L 160.535156 323.757812 Z M 96.578125 296.589844 " clip-rule="nonzero"/></clipPath><clipPath id="51b0de3415"><path d="M 125 252 L 130 252 L 130 258 L 125 258 Z M 125 252 " clip-rule="nonzero"/></clipPath><clipPath id="f124db3f8c"><path d="M 96.578125 296.589844 L 123.75 232.632812 L 187.707031 259.800781 L 160.535156 323.757812 Z M 96.578125 296.589844 " clip-rule="nonzero"/></clipPath><clipPath id="590196c58c"><path d="M 96.578125 296.589844 L 123.75 232.632812 L 187.707031 259.800781 L 160.535156 323.757812 Z M 96.578125 296.589844 " clip-rule="nonzero"/></clipPath><clipPath id="f3d7ed380d"><path d="M 122 245 L 130 245 L 130 252 L 122 252 Z M 122 245 " clip-rule="nonzero"/></clipPath><clipPath id="f8980bcd88"><path d="M 96.578125 296.589844 L 123.75 232.632812 L 187.707031 259.800781 L 160.535156 323.757812 Z M 96.578125 296.589844 " clip-rule="nonzero"/></clipPath><clipPath id="82606ff952"><path d="M 96.578125 296.589844 L 123.75 232.632812 L 187.707031 259.800781 L 160.535156 323.757812 Z M 96.578125 296.589844 " clip-rule="nonzero"/></clipPath><clipPath id="38e0af0a79"><path d="M 193 20.957031 L 238 20.957031 L 238 77 L 193 77 Z M 193 20.957031 " clip-rule="nonzero"/></clipPath></defs><g clip-path="url(#682bc38f49)"><g clip-path="url(#d483eb11bf)"><g clip-path="url(#ac48c99ab3)"><path fill="#343332" d="M 157.171875 277.226562 C 156.644531 277.09375 156.074219 277.023438 155.542969 276.964844 C 155.011719 276.910156 154.503906 276.878906 154 276.863281 C 151.019531 276.738281 147.777344 277.53125 144.789062 279.308594 C 142.355469 280.753906 140.425781 282.660156 139.070312 284.761719 C 138.59375 285.449219 138.152344 286.234375 137.78125 287.109375 C 137.1875 288.503906 136.773438 290.097656 136.566406 291.8125 C 136.421875 293.164062 136.421875 294.472656 136.5625 295.703125 C 136.566406 295.765625 136.582031 295.835938 136.585938 295.898438 C 136.597656 295.980469 136.601562 296.042969 136.613281 296.125 C 136.625 296.207031 136.636719 296.289062 136.648438 296.371094 C 136.660156 296.453125 136.675781 296.550781 136.6875 296.632812 C 136.746094 296.96875 136.820312 297.304688 136.882812 297.625 C 137.253906 299.367188 138.015625 301.15625 139.09375 302.78125 C 139.9375 304.0625 141.046875 305.289062 142.496094 306.519531 C 142.542969 306.449219 142.605469 306.367188 142.664062 306.300781 C 142.730469 306.21875 142.808594 306.144531 142.871094 306.066406 C 142.980469 305.957031 143.074219 305.84375 143.191406 305.753906 C 143.464844 305.578125 143.730469 305.460938 144.074219 305.453125 C 144.910156 305.4375 145.585938 305.910156 146.285156 306.296875 C 146.710938 306.527344 147.144531 306.738281 147.574219 306.953125 C 148.457031 307.375 149.335938 307.808594 150.242188 308.179688 C 151.066406 308.515625 151.898438 308.804688 152.746094 309.058594 C 153.203125 309.175781 153.652344 309.210938 154.109375 309.253906 C 154.675781 309.261719 155.226562 309.234375 155.796875 309.125 C 156.058594 309.050781 156.320312 308.976562 156.570312 308.867188 C 156.589844 308.8125 156.59375 308.769531 156.617188 308.71875 C 156.765625 308.363281 157.085938 308.085938 157.488281 308.007812 C 157.757812 307.953125 158.007812 307.90625 158.269531 307.832031 C 158.648438 307.703125 159.015625 307.566406 159.367188 307.390625 C 159.71875 307.21875 160.046875 307.019531 160.382812 306.808594 C 160.863281 306.472656 161.324219 306.113281 161.785156 305.753906 C 162.203125 305.425781 162.589844 305.050781 163 304.703125 C 163.410156 304.355469 163.847656 304.015625 164.25 303.648438 C 164.570312 303.367188 164.886719 303.085938 165.242188 302.867188 C 165.457031 302.726562 165.671875 302.621094 165.90625 302.503906 C 165.925781 302.496094 165.925781 302.496094 165.941406 302.488281 C 165.941406 302.488281 165.949219 302.476562 165.949219 302.476562 C 166.007812 302.378906 166.058594 302.292969 166.117188 302.191406 C 166.136719 302.140625 166.152344 302.101562 166.1875 302.054688 C 166.195312 302.042969 166.199219 302.027344 166.207031 302.015625 C 166.210938 302.003906 166.210938 302.003906 166.21875 301.988281 C 166.222656 301.976562 166.226562 301.964844 166.234375 301.949219 C 166.238281 301.9375 166.246094 301.925781 166.25 301.910156 C 166.378906 301.644531 166.507812 301.375 166.636719 301.105469 C 166.644531 301.09375 166.644531 301.09375 166.648438 301.082031 C 166.65625 301.066406 166.660156 301.054688 166.671875 301.027344 C 166.738281 300.871094 166.808594 300.703125 166.875 300.546875 C 166.933594 300.414062 166.988281 300.285156 167.042969 300.152344 C 167.191406 299.769531 167.339844 299.386719 167.484375 299.003906 C 167.5625 298.789062 167.648438 298.582031 167.730469 298.351562 C 167.746094 298.3125 167.769531 298.261719 167.773438 298.21875 C 167.777344 298.203125 167.769531 298.1875 167.777344 298.171875 C 167.777344 298.097656 167.792969 298.027344 167.792969 297.949219 C 167.765625 297.691406 167.722656 297.425781 167.683594 297.164062 C 167.632812 296.847656 167.582031 296.535156 167.542969 296.226562 C 167.527344 296.082031 167.515625 295.921875 167.507812 295.765625 C 167.34375 295.601562 167.222656 295.382812 167.1875 295.136719 C 167.136719 294.789062 167.0625 294.453125 167.027344 294.097656 C 166.988281 293.757812 166.960938 293.421875 166.941406 293.074219 C 166.910156 292.710938 166.867188 292.304688 166.925781 291.945312 C 166.988281 291.585938 167.074219 291.238281 167.179688 290.882812 C 167.199219 290.832031 167.210938 290.773438 167.230469 290.722656 C 167.253906 290.667969 167.269531 290.597656 167.292969 290.546875 C 167.292969 290.546875 167.296875 290.535156 167.296875 290.535156 C 167.308594 290.507812 167.3125 290.496094 167.324219 290.46875 C 167.359375 290.390625 167.410156 290.304688 167.449219 290.214844 C 167.515625 290.089844 167.585938 289.964844 167.675781 289.863281 C 167.734375 289.796875 167.792969 289.726562 167.847656 289.675781 C 167.796875 289.5 167.75 289.324219 167.699219 289.148438 C 167.632812 288.90625 167.566406 288.664062 167.496094 288.433594 C 167.441406 288.238281 167.371094 288.039062 167.300781 287.839844 C 167.230469 287.644531 167.175781 287.449219 167.105469 287.25 C 167.105469 287.25 167.097656 287.230469 167.085938 287.226562 C 167.0625 287.171875 167.054688 287.121094 167.03125 287.066406 C 166.980469 286.964844 166.9375 286.886719 166.886719 286.789062 C 166.328125 285.566406 165.65625 284.355469 164.871094 283.160156 C 164.3125 282.308594 163.652344 281.535156 163.140625 280.964844 C 162.515625 280.265625 161.800781 279.59375 160.996094 278.988281 C 160.261719 278.433594 159.445312 277.960938 158.570312 277.589844 C 158.167969 277.527344 157.695312 277.371094 157.171875 277.226562 Z M 149.214844 286.316406 C 149.15625 286.460938 149.074219 286.578125 148.964844 286.6875 C 148.960938 286.699219 148.941406 286.707031 148.921875 286.714844 C 148.875 286.757812 148.832031 286.785156 148.789062 286.8125 C 148.769531 286.820312 148.765625 286.832031 148.746094 286.839844 C 148.683594 286.875 148.628906 286.898438 148.566406 286.933594 C 148.566406 286.933594 148.566406 286.933594 148.550781 286.941406 C 148.476562 286.972656 148.40625 286.988281 148.335938 287.003906 C 148.324219 287 148.320312 287.011719 148.304688 287.007812 C 148.242188 287.011719 148.191406 287.019531 148.128906 287.023438 C 148.117188 287.019531 148.097656 287.027344 148.085938 287.019531 C 148.027344 287.011719 147.964844 287.015625 147.90625 287.007812 C 147.894531 287 147.875 287.007812 147.863281 287.003906 C 147.789062 286.988281 147.71875 286.972656 147.648438 286.925781 C 147.347656 286.800781 147.140625 286.558594 147.03125 286.28125 C 146.945312 286.074219 146.925781 285.835938 146.976562 285.609375 C 146.988281 285.539062 147.011719 285.457031 147.042969 285.378906 C 147.070312 285.3125 147.113281 285.253906 147.152344 285.191406 C 147.15625 285.179688 147.183594 285.160156 147.1875 285.148438 C 147.222656 285.101562 147.257812 285.054688 147.300781 285.023438 C 147.304688 285.011719 147.324219 285.003906 147.332031 284.992188 C 147.382812 284.9375 147.433594 284.894531 147.492188 284.859375 C 147.554688 284.824219 147.617188 284.789062 147.671875 284.765625 C 147.691406 284.761719 147.710938 284.753906 147.710938 284.753906 C 147.765625 284.730469 147.816406 284.71875 147.882812 284.703125 C 147.898438 284.707031 147.902344 284.695312 147.914062 284.703125 C 148.136719 284.65625 148.371094 284.679688 148.59375 284.773438 C 149.035156 284.960938 149.304688 285.414062 149.296875 285.871094 C 149.316406 286.003906 149.28125 286.160156 149.214844 286.316406 Z M 149.214844 286.316406 " fill-opacity="1" fill-rule="nonzero"/></g></g></g><g clip-path="url(#ce219b44b6)"><g clip-path="url(#525e9380ac)"><g clip-path="url(#dc44b5e7ec)"><path fill="#d0d2d3" d="M 154.722656 292.519531 C 154.691406 292.519531 154.671875 292.527344 154.640625 292.53125 C 154.660156 292.523438 154.691406 292.519531 154.722656 292.519531 Z M 154.722656 292.519531 " fill-opacity="1" fill-rule="nonzero"/></g></g></g><g clip-path="url(#c51bff390b)"><g clip-path="url(#da7cfc971d)"><g clip-path="url(#a401b01227)"><path fill="#d0d2d3" d="M 167.167969 289.09375 C 167.15625 289.089844 167.144531 289.082031 167.136719 289.097656 C 167.136719 289.097656 167.152344 289.101562 167.167969 289.09375 Z M 167.167969 289.09375 " fill-opacity="1" fill-rule="nonzero"/></g></g></g><g clip-path="url(#fda9a95f83)"><g clip-path="url(#b10323fe2a)"><g clip-path="url(#a31b786cbf)"><path fill="#d0d2d3" d="M 167.414062 288.953125 C 167.390625 288.972656 167.367188 288.992188 167.34375 289.011719 C 167.367188 288.992188 167.390625 288.972656 167.414062 288.953125 Z M 167.414062 288.953125 " fill-opacity="1" fill-rule="nonzero"/></g></g></g><g clip-path="url(#d61af2bed8)"><g clip-path="url(#ad4b58e2c1)"><g clip-path="url(#96bf737301)"><path fill="#d0d2d3" d="M 163.210938 299.496094 C 163.179688 299.5 163.148438 299.5 163.128906 299.507812 C 163.15625 299.519531 163.175781 299.511719 163.210938 299.496094 Z M 163.210938 299.496094 " fill-opacity="1" fill-rule="nonzero"/></g></g></g><g clip-path="url(#09c0274fc9)"><g clip-path="url(#8f0f2e05a6)"><g clip-path="url(#58f1994013)"><path fill="#ffde59" d="M 141.855469 302.261719 C 141.773438 302.488281 141.714844 302.742188 141.675781 303.015625 C 141.640625 303.460938 141.632812 303.90625 141.6875 304.359375 C 141.777344 304.984375 141.917969 305.597656 142.085938 306.175781 C 142.402344 306.449219 142.738281 306.746094 143.097656 307.023438 C 143.851562 307.636719 144.6875 308.175781 145.40625 308.652344 L 145.433594 308.660156 C 145.832031 308.921875 146.171875 309.128906 146.476562 309.320312 L 148.625 310.601562 L 149.140625 310.914062 L 149.285156 311.007812 L 149.445312 311.105469 L 149.589844 311.195312 C 150.109375 311.496094 150.839844 311.914062 151.488281 312.34375 C 152.085938 312.75 152.613281 313.175781 153.089844 313.578125 C 153.089844 313.578125 153.109375 313.570312 153.121094 313.574219 C 153.132812 313.582031 153.148438 313.585938 153.160156 313.589844 C 153.488281 313.871094 153.789062 314.179688 154.0625 314.511719 C 154.34375 314.863281 154.59375 315.214844 154.816406 315.601562 C 155 315.925781 155.167969 316.261719 155.300781 316.59375 C 155.445312 316.949219 155.574219 317.296875 155.667969 317.65625 C 155.757812 318.019531 155.832031 318.390625 155.875 318.761719 C 155.917969 319.132812 155.925781 319.507812 155.90625 319.882812 C 155.886719 320.257812 155.820312 320.632812 155.726562 320.992188 C 155.722656 321.007812 155.710938 321.03125 155.71875 321.050781 C 155.71875 321.050781 155.71875 321.050781 155.710938 321.0625 C 155.707031 321.078125 155.707031 321.078125 155.703125 321.089844 C 155.699219 321.132812 155.699219 321.167969 155.695312 321.210938 C 155.699219 321.242188 155.691406 321.253906 155.699219 321.273438 C 155.695312 321.285156 155.707031 321.292969 155.703125 321.304688 C 155.695312 321.320312 155.710938 321.324219 155.703125 321.335938 C 155.703125 321.335938 155.699219 321.351562 155.710938 321.355469 C 155.71875 321.375 155.714844 321.386719 155.722656 321.40625 C 155.734375 321.441406 155.75 321.480469 155.765625 321.515625 C 155.78125 321.554688 155.800781 321.578125 155.816406 321.617188 C 155.835938 321.640625 155.851562 321.675781 155.871094 321.703125 C 155.871094 321.703125 155.871094 321.703125 155.886719 321.707031 C 155.925781 321.753906 155.972656 321.789062 156.03125 321.832031 C 156.03125 321.832031 156.019531 321.824219 156.019531 321.824219 C 156.054688 321.855469 156.078125 321.867188 156.117188 321.882812 C 156.15625 321.898438 156.183594 321.910156 156.222656 321.925781 C 156.25 321.9375 156.269531 321.929688 156.28125 321.9375 C 156.324219 321.941406 156.355469 321.9375 156.371094 321.945312 C 156.402344 321.941406 156.433594 321.941406 156.464844 321.9375 C 156.546875 321.925781 156.621094 321.894531 156.703125 321.882812 L 156.832031 321.832031 L 156.945312 321.789062 L 157.011719 321.738281 L 157.078125 321.691406 C 158.191406 320.917969 159.277344 320.066406 160.324219 319.160156 C 160.78125 318.769531 161.324219 318.289062 161.835938 317.769531 C 162.261719 317.351562 162.695312 316.871094 163.171875 316.335938 C 163.898438 315.457031 164.496094 314.664062 164.980469 313.886719 C 165.21875 313.511719 165.453125 313.101562 165.683594 312.707031 L 165.785156 312.535156 C 166.28125 311.730469 166.734375 310.84375 167.183594 309.820312 L 167.242188 309.691406 C 167.933594 308.058594 168.441406 306.210938 168.738281 304.167969 C 168.777344 303.9375 168.804688 303.6875 168.839844 303.457031 C 168.890625 303.15625 168.929688 302.816406 168.984375 302.472656 C 169.019531 302.023438 169.058594 301.535156 169.066406 301.042969 C 169.078125 300.617188 169.09375 300.179688 169.097656 299.734375 C 169.101562 298.167969 169.015625 296.558594 168.835938 294.957031 C 168.667969 293.46875 168.421875 292.011719 168.117188 290.667969 C 168.03125 290.324219 167.949219 289.980469 167.871094 289.652344 C 167.851562 289.628906 167.816406 289.601562 167.796875 289.574219 C 167.777344 289.582031 167.777344 289.582031 167.757812 289.589844 C 167.699219 289.625 167.65625 289.652344 167.59375 289.691406 C 167.546875 289.730469 167.496094 289.773438 167.449219 289.8125 C 167.371094 289.886719 167.304688 289.96875 167.234375 290.0625 C 167.191406 290.132812 167.128906 290.199219 167.089844 290.292969 C 166.875 290.660156 166.714844 291.070312 166.601562 291.484375 C 166.53125 291.71875 166.492188 291.960938 166.449219 292.203125 C 166.390625 292.917969 166.371094 293.652344 166.351562 294.351562 L 166.34375 294.40625 C 166.332031 294.910156 166.316406 295.414062 166.285156 295.921875 L 166.285156 296 C 166.238281 296.71875 166.195312 297.46875 166.050781 298.210938 L 166.007812 298.421875 C 165.960938 298.679688 165.90625 298.949219 165.816406 299.203125 C 165.75 299.390625 165.699219 299.582031 165.621094 299.765625 C 165.578125 299.871094 165.535156 299.976562 165.46875 300.054688 C 165.21875 300.457031 164.699219 301.175781 163.910156 301.410156 C 163.292969 301.59375 162.589844 301.542969 161.941406 301.25 C 161.347656 300.984375 160.835938 300.566406 160.304688 299.894531 C 159.925781 299.410156 159.554688 298.898438 159.210938 298.335938 L 158.90625 297.851562 L 158.300781 296.886719 C 158.125 296.613281 157.941406 296.320312 157.765625 296.042969 L 157.570312 295.746094 L 157.347656 295.402344 C 157.089844 295.0625 156.816406 294.765625 156.511719 294.511719 C 156.410156 294.421875 156.304688 294.34375 156.210938 294.273438 C 156.15625 294.253906 156.109375 294.21875 156.058594 294.195312 C 155.902344 294.128906 155.726562 294.070312 155.554688 294.042969 C 155.484375 294.027344 155.40625 294.027344 155.332031 294.023438 C 155.285156 294.019531 155.253906 294.023438 155.222656 294.023438 C 155.121094 294.042969 155.023438 294.0625 154.941406 294.074219 C 154.867188 294.105469 154.796875 294.121094 154.722656 294.152344 C 154.648438 294.179688 154.585938 294.214844 154.507812 294.257812 C 154.441406 294.308594 154.367188 294.339844 154.300781 294.386719 C 154.257812 294.414062 154.207031 294.457031 154.160156 294.496094 C 154.125 294.542969 154.089844 294.589844 154.074219 294.628906 C 154.027344 294.703125 153.984375 294.804688 153.949219 294.882812 C 153.90625 294.988281 153.878906 295.085938 153.839844 295.175781 C 153.789062 295.371094 153.738281 295.5625 153.71875 295.757812 C 153.691406 295.960938 153.671875 296.152344 153.65625 296.375 C 153.640625 296.585938 153.652344 296.820312 153.667969 297.027344 C 153.867188 298.160156 154.234375 299.253906 154.578125 300.324219 L 154.65625 300.542969 L 154.773438 300.882812 L 154.808594 300.976562 C 154.984375 301.542969 155.183594 302.121094 155.324219 302.703125 C 155.457031 303.296875 155.53125 303.808594 155.542969 304.289062 C 155.554688 304.910156 155.464844 305.410156 155.277344 305.855469 L 155.261719 305.894531 C 155.140625 306.179688 154.988281 306.425781 154.796875 306.621094 C 154.679688 306.753906 154.554688 306.871094 154.375 306.996094 C 154.304688 307.058594 154.21875 307.113281 154.125 307.152344 C 153.878906 307.261719 153.601562 307.375 153.300781 307.429688 C 153.015625 307.480469 152.757812 307.476562 152.46875 307.433594 C 151.273438 307.234375 150.292969 306.460938 149.660156 305.886719 C 149.210938 305.496094 148.796875 305.058594 148.402344 304.613281 C 148.246094 304.4375 148.105469 304.253906 147.949219 304.082031 L 147.878906 303.988281 C 147.695312 303.773438 147.523438 303.5625 147.339844 303.34375 C 147.257812 303.246094 147.175781 303.152344 147.09375 303.054688 L 146.988281 302.933594 C 146.785156 302.691406 146.546875 302.421875 146.300781 302.164062 C 146 301.851562 145.660156 301.539062 145.226562 301.214844 C 144.980469 301.035156 144.757812 300.90625 144.527344 300.796875 C 144.390625 300.753906 144.25 300.722656 144.09375 300.6875 C 143.902344 300.667969 143.699219 300.675781 143.496094 300.679688 C 143.398438 300.699219 143.308594 300.722656 143.21875 300.761719 C 143.074219 300.839844 142.933594 300.917969 142.78125 301.023438 C 142.566406 301.207031 142.375 301.40625 142.210938 301.613281 C 142.070312 301.828125 141.964844 302.046875 141.855469 302.261719 Z M 166.597656 291.453125 C 166.59375 291.464844 166.59375 291.464844 166.597656 291.453125 C 166.59375 291.464844 166.59375 291.464844 166.597656 291.453125 Z M 166.597656 291.453125 " fill-opacity="1" fill-rule="nonzero"/></g></g></g><g clip-path="url(#754bbce0bc)"><g clip-path="url(#2129d1f088)"><g clip-path="url(#af15f08738)"><path fill="#d0d2d3" d="M 121.773438 237.421875 C 121.722656 237.539062 121.679688 237.644531 121.628906 237.761719 C 121.445312 238.234375 121.292969 238.773438 121.164062 239.363281 C 121.066406 239.84375 120.984375 240.363281 120.925781 240.941406 C 120.875 241.457031 120.851562 241.984375 120.835938 242.5625 C 120.824219 243.574219 120.882812 244.632812 121.019531 245.828125 C 121.148438 246.867188 121.320312 247.941406 121.570312 249.097656 C 121.792969 250.128906 122.0625 251.167969 122.386719 252.289062 C 122.972656 254.308594 123.746094 256.40625 124.671875 258.539062 C 125.515625 260.5 126.503906 262.488281 127.613281 264.441406 C 128.71875 266.402344 129.929688 268.300781 131.226562 270.101562 C 131.695312 270.746094 132.164062 271.375 132.640625 271.992188 C 132.867188 272.289062 133.089844 272.601562 133.328125 272.914062 C 133.683594 273.453125 134.042969 273.945312 134.40625 274.390625 C 134.46875 274.464844 134.539062 274.554688 134.601562 274.628906 C 134.871094 274.972656 135.144531 275.335938 135.421875 275.699219 C 136.929688 277.664062 138.398438 279.488281 139.65625 280.992188 C 140.117188 281.574219 140.605469 282.164062 141.089844 282.757812 C 141.886719 283.710938 142.71875 284.648438 143.648438 285.691406 L 143.835938 285.894531 L 143.886719 285.960938 C 143.949219 286.066406 144.011719 286.167969 144.078125 286.273438 C 144.160156 286.402344 144.277344 286.527344 144.40625 286.660156 C 144.527344 286.773438 144.660156 286.890625 144.828125 287.007812 C 145.125 287.210938 145.472656 287.375 145.867188 287.496094 C 146.210938 287.59375 146.570312 287.65625 146.976562 287.671875 C 147.324219 287.683594 147.691406 287.65625 148.089844 287.59375 C 148.441406 287.527344 148.808594 287.421875 149.183594 287.257812 C 149.5 287.128906 149.820312 286.957031 150.121094 286.761719 C 150.523438 286.5 150.882812 286.191406 151.195312 285.820312 C 151.5 285.46875 151.761719 285.074219 151.949219 284.660156 L 151.976562 284.59375 C 152.050781 284.425781 152.109375 284.25 152.160156 284.058594 C 152.210938 283.863281 152.25 283.664062 152.261719 283.421875 L 152.273438 283.394531 L 152.269531 283.332031 L 152.265625 283.300781 C 152.273438 283.105469 152.265625 282.902344 152.234375 282.6875 C 152.203125 282.472656 152.128906 282.242188 152.039062 282.019531 C 151.78125 280.601562 151.476562 279.148438 151.105469 277.558594 C 150.746094 276.007812 150.34375 274.417969 149.882812 272.714844 C 149.035156 269.566406 148.074219 266.390625 146.9375 262.980469 C 146.328125 261.121094 145.671875 259.257812 144.996094 257.402344 L 144.90625 257.144531 L 144.890625 257.109375 L 144.875 257.070312 L 144.804688 256.871094 L 144.765625 256.75 L 144.71875 256.605469 L 144.644531 256.417969 L 144.621094 256.363281 L 144.613281 256.34375 C 144.589844 256.257812 144.558594 256.183594 144.515625 256.101562 L 144.484375 255.996094 C 144.347656 255.632812 144.21875 255.285156 144.074219 254.929688 L 144.0625 254.894531 L 144 254.746094 L 143.980469 254.6875 L 143.957031 254.632812 C 143.851562 254.375 143.75 254.101562 143.648438 253.839844 L 143.578125 253.640625 L 143.503906 253.457031 L 143.363281 253.089844 C 141.859375 249.09375 140.175781 245.699219 138.203125 242.738281 C 137.203125 241.21875 136.03125 239.769531 134.640625 238.300781 C 133.871094 237.496094 133.203125 236.859375 132.535156 236.328125 C 131.867188 235.796875 131.042969 235.277344 130.007812 234.746094 C 129.566406 234.511719 129.105469 234.332031 128.613281 234.183594 C 128.601562 234.179688 128.585938 234.171875 128.570312 234.179688 C 128.570312 234.179688 128.523438 234.175781 128.523438 234.175781 C 128.300781 234.128906 128.082031 234.097656 127.871094 234.085938 C 127.621094 234.054688 127.394531 234.050781 127.183594 234.039062 C 126.828125 234.042969 126.5 234.054688 126.203125 234.097656 C 125.925781 234.136719 125.625 234.191406 125.347656 234.261719 C 125.074219 234.328125 124.820312 234.421875 124.582031 234.503906 C 124.339844 234.601562 124.109375 234.71875 123.875 234.835938 C 123.691406 234.941406 123.542969 235.03125 123.410156 235.128906 C 123.257812 235.234375 123.113281 235.359375 122.988281 235.472656 L 123.027344 235.488281 C 123.027344 235.488281 123 235.511719 123 235.511719 L 122.953125 235.550781 C 122.953125 235.550781 122.929688 235.570312 122.929688 235.570312 L 122.90625 235.59375 L 122.84375 235.660156 C 122.828125 235.667969 122.816406 235.691406 122.796875 235.699219 C 122.726562 235.792969 122.636719 235.894531 122.5625 236 C 122.527344 236.046875 122.492188 236.09375 122.457031 236.140625 C 122.375 236.261719 122.300781 236.367188 122.230469 236.492188 C 122.082031 236.765625 121.921875 237.070312 121.773438 237.421875 Z M 121.773438 237.421875 " fill-opacity="1" fill-rule="nonzero"/></g></g></g><g clip-path="url(#51b0de3415)"><g clip-path="url(#f124db3f8c)"><g clip-path="url(#590196c58c)"><path fill="#ffffff" d="M 125.386719 254.320312 C 125.203125 254.824219 125.238281 255.394531 125.464844 255.875 C 125.699219 256.40625 126.128906 256.742188 126.648438 256.964844 C 127.691406 257.40625 128.9375 256.71875 129.292969 255.703125 C 129.480469 255.195312 129.441406 254.625 129.214844 254.144531 C 128.980469 253.613281 128.554688 253.277344 128.03125 253.054688 C 126.988281 252.613281 125.738281 253.3125 125.386719 254.320312 Z M 125.386719 254.320312 " fill-opacity="1" fill-rule="nonzero"/></g></g></g><g clip-path="url(#f3d7ed380d)"><g clip-path="url(#f8980bcd88)"><g clip-path="url(#82606ff952)"><path fill="#ffffff" d="M 127.152344 245.523438 C 126.394531 245.203125 125.429688 245.300781 124.703125 245.636719 C 123.917969 246 123.289062 246.683594 123.003906 247.503906 C 122.726562 248.292969 122.765625 249.1875 123.117188 249.953125 C 123.503906 250.777344 124.160156 251.304688 124.980469 251.652344 C 125.738281 251.972656 126.703125 251.875 127.429688 251.539062 C 128.214844 251.179688 128.84375 250.492188 129.128906 249.675781 C 129.40625 248.882812 129.367188 247.988281 129.015625 247.226562 C 128.640625 246.402344 127.988281 245.878906 127.152344 245.523438 Z M 127.152344 245.523438 " fill-opacity="1" fill-rule="nonzero"/></g></g></g><path fill="#6d6e70" d="M 185.375 211.160156 C 162.023438 242.894531 189.9375 262.796875 191.546875 268.855469 C 193.160156 274.914062 168.464844 284.433594 166.855469 280.394531 C 165.242188 276.355469 170.613281 273.761719 177.859375 269.722656 C 148.066406 240.585938 170.34375 208.851562 170.34375 208.851562 C 170.34375 208.851562 179.46875 208.851562 185.375 211.160156 Z M 238.019531 211.160156 C 261.371094 242.894531 233.457031 262.796875 231.847656 268.855469 C 230.238281 274.914062 254.929688 284.433594 256.542969 280.394531 C 258.152344 276.355469 252.785156 273.761719 245.535156 269.722656 C 275.332031 240.585938 253.050781 208.851562 253.050781 208.851562 C 253.050781 208.851562 243.925781 208.851562 238.019531 211.160156 Z M 176.679688 84.265625 C 176.679688 84.265625 167.574219 89.183594 161.972656 93.75 C 160.925781 79.699219 165.125 58.269531 171.777344 58.269531 C 178.429688 58.269531 176.679688 84.265625 176.679688 84.265625 Z M 253.726562 84.265625 C 253.726562 84.265625 262.828125 89.183594 268.429688 93.75 C 269.480469 79.699219 265.277344 58.269531 258.625 58.269531 C 251.972656 58.269531 253.726562 84.265625 253.726562 84.265625 Z M 211.367188 185.253906 C 211.367188 185.253906 205.617188 178.863281 203.316406 179.296875 C 201.019531 179.726562 197.855469 185.253906 197.855469 185.253906 C 197.855469 185.253906 204.316406 198.191406 214.882812 195.449219 C 225.453125 192.710938 231.921875 187.5625 230.484375 182.128906 C 229.046875 176.699219 219.847656 184.488281 219.847656 184.488281 C 219.847656 184.488281 216.398438 186.164062 211.367188 185.253906 Z M 211.367188 185.253906 " fill-opacity="1" fill-rule="nonzero"/><path fill="#a6a8ab" d="M 326.203125 95.980469 C 324.632812 79.003906 318.242188 64.828125 315.445312 64.269531 C 313.867188 63.953125 311.359375 69.933594 311.359375 69.933594 C 311.359375 69.933594 306.488281 59.957031 304.308594 60.949219 C 302.125 61.945312 303.289062 71.867188 303.289062 71.867188 C 303.289062 71.867188 296.296875 67.816406 294.835938 69.554688 C 293.257812 71.433594 298.476562 84.707031 299.648438 89.769531 C 301.585938 98.128906 302.066406 112.769531 299.667969 124.101562 C 299.1875 126.355469 298.582031 128.425781 297.882812 130.335938 C 293.609375 117.03125 286.1875 106.351562 277.203125 97.996094 C 279.988281 76.300781 273.355469 45.21875 259.132812 45.574219 C 244.125 45.949219 246.515625 78.019531 246.625 79.375 C 235.582031 75.222656 224.632812 73.300781 215.660156 73.269531 C 206.648438 73.300781 195.578125 75.238281 184.390625 79.425781 C 184.390625 79.425781 184.394531 79.421875 184.394531 79.421875 C 184.394531 79.421875 187.21875 45.960938 171.890625 45.574219 C 157.699219 45.21875 151.0625 76.152344 153.796875 97.839844 C 140.035156 110.40625 129.789062 128.261719 128.679688 152.441406 C 118.585938 163.480469 113.492188 177.265625 113.492188 177.265625 C 107.742188 190.246094 108.550781 208.609375 109.8125 218.472656 C 111.980469 235.386719 118.863281 249.328125 121.679688 249.785156 C 123.265625 250.042969 125.566406 243.980469 125.566406 243.980469 C 125.566406 243.980469 130.78125 253.78125 132.925781 252.707031 C 135.074219 251.636719 133.5625 241.761719 133.5625 241.761719 C 133.5625 241.761719 140.691406 245.5625 142.089844 243.773438 C 143.601562 241.84375 137.917969 228.757812 136.570312 223.742188 C 134.449219 215.855469 133.453125 202.238281 135.085938 191.109375 C 150.035156 225.550781 187.628906 232.847656 215.203125 232.847656 C 248.761719 232.847656 297.117188 221.40625 301.503906 164.601562 C 314.25 153.683594 321.078125 137.035156 321.078125 137.035156 C 327.28125 124.265625 327.117188 105.882812 326.203125 95.980469 Z M 175.367188 82.789062 C 175.367188 82.789062 167.894531 86.828125 163.292969 90.578125 C 162.429688 79.039062 165.878906 61.441406 171.34375 61.441406 C 176.804688 61.441406 175.367188 82.789062 175.367188 82.789062 Z M 227.410156 186.3125 C 224.3125 190.121094 219.332031 192.378906 214.425781 192.09375 C 209.503906 191.804688 205.007812 189.175781 202.207031 185.132812 C 201.125 183.570312 203.671875 182.097656 204.746094 183.644531 C 206.980469 186.871094 210.78125 189.007812 214.703125 189.15625 C 218.824219 189.3125 222.738281 187.414062 225.332031 184.226562 C 225.835938 183.609375 226.890625 183.707031 227.410156 184.226562 C 228.007812 184.832031 227.910156 185.695312 227.410156 186.3125 Z M 267.109375 90.578125 C 262.511719 86.828125 255.035156 82.789062 255.035156 82.789062 C 255.035156 82.789062 253.597656 61.441406 259.058594 61.441406 C 264.523438 61.441406 267.972656 79.039062 267.109375 90.578125 Z M 267.109375 90.578125 " fill-opacity="1" fill-rule="nonzero"/><g clip-path="url(#38e0af0a79)"><path fill="#d0d2d3" d="M 193.414062 76.511719 C 193.414062 76.511719 207.574219 20.957031 216.390625 20.957031 C 225.207031 20.957031 237.164062 76.335938 237.164062 76.335938 C 237.164062 76.335938 219.710938 71.558594 193.414062 76.511719 Z M 193.414062 76.511719 C 193.414062 76.511719 207.574219 20.957031 216.390625 20.957031 C 225.207031 20.957031 237.164062 76.335938 237.164062 76.335938 C 237.164062 76.335938 219.710938 71.558594 193.414062 76.511719 Z M 193.414062 76.511719 " fill-opacity="1" fill-rule="nonzero"/></g><path fill="#a6a8ab" d="M 227.164062 39.425781 C 223.722656 37.175781 219.746094 35.957031 215.542969 36.15625 C 211.742188 36.332031 208.125 37.625 204.867188 39.546875 C 205.410156 38.121094 205.957031 36.730469 206.511719 35.394531 C 209.441406 34.101562 212.582031 33.304688 215.804688 33.195312 C 219.277344 33.074219 222.613281 33.832031 225.671875 35.25 C 226.175781 36.59375 226.671875 37.988281 227.164062 39.425781 Z M 226.734375 51.914062 C 228.414062 52.441406 230.03125 53.121094 231.585938 53.917969 C 231.25 52.699219 230.898438 51.460938 230.539062 50.222656 C 222.105469 46.738281 212.535156 46.667969 203.765625 49.558594 C 202.828125 49.867188 201.90625 50.21875 200.988281 50.589844 C 200.578125 51.84375 200.175781 53.097656 199.785156 54.332031 C 208.152344 50.382812 217.8125 49.105469 226.734375 51.914062 Z M 228.535156 66.972656 C 230.945312 67.585938 233.289062 68.414062 235.558594 69.410156 C 235.304688 68.335938 235.019531 67.152344 234.707031 65.886719 C 223.710938 61.679688 211.386719 61.574219 200.019531 64.617188 C 198.785156 64.945312 197.570312 65.328125 196.363281 65.734375 C 196.011719 66.953125 195.6875 68.105469 195.390625 69.167969 C 205.898438 65.246094 217.667969 64.191406 228.535156 66.972656 Z M 228.535156 66.972656 " fill-opacity="1" fill-rule="nonzero"/><path fill="#ffffff" d="M 257.957031 194.117188 C 245.664062 194.257812 230.871094 185.066406 234.074219 163.6875 C 237.164062 143.09375 251.5 137.675781 263.773438 138.984375 C 277.53125 140.457031 288.699219 151.257812 285.828125 171.214844 C 283.183594 189.621094 268.714844 193.992188 257.957031 194.117188 Z M 172.625 138.808594 C 184.917969 138.667969 200.011719 147.707031 196.503906 169.238281 C 193.210938 189.453125 179.078125 195.25 166.808594 193.9375 C 153.050781 192.46875 141.878906 181.667969 144.75 161.707031 C 147.398438 143.300781 161.863281 138.933594 172.625 138.808594 Z M 203.546875 186.820312 C 202.9375 189.046875 202.617188 195.570312 204.324219 196.425781 C 205.953125 197.242188 211.078125 194.453125 213.042969 191.949219 C 209.367188 191.378906 206 189.511719 203.546875 186.820312 Z M 203.546875 186.820312 " fill-opacity="1" fill-rule="nonzero"/><path fill="#0e0f1a" d="M 255.289062 188.617188 C 254.769531 188.316406 254.273438 188 253.808594 187.675781 C 247.734375 183.410156 243.347656 173.015625 249.789062 162.289062 C 257.503906 149.4375 268.097656 149.625 275.171875 153.6875 C 283.101562 158.238281 284.828125 171.214844 278.21875 181.777344 C 272.628906 190.714844 261.457031 192.15625 255.289062 188.617188 Z M 174.289062 144.308594 C 174.808594 144.609375 175.304688 144.921875 175.769531 145.25 C 181.84375 149.511719 185.785156 158.46875 179.789062 170.636719 C 174.523438 181.316406 161.480469 183.300781 154.40625 179.238281 C 146.476562 174.6875 143.660156 162.949219 151.359375 151.148438 C 157.574219 141.617188 168.121094 140.769531 174.289062 144.308594 Z M 174.289062 144.308594 " fill-opacity="1" fill-rule="nonzero"/><path fill="#6d6e70" d="M 322.195312 76.570312 L 297.4375 82.414062 C 295.6875 76.914062 293.800781 70.785156 294.835938 69.554688 C 296.296875 67.816406 303.289062 71.867188 303.289062 71.867188 C 303.289062 71.867188 302.125 61.945312 304.308594 60.949219 C 306.488281 59.957031 311.359375 69.933594 311.359375 69.933594 C 311.359375 69.933594 313.867188 63.953125 315.445312 64.269531 C 317.042969 64.585938 319.820312 69.367188 322.195312 76.570312 Z M 142.089844 243.773438 C 143.011719 242.597656 141.261719 237.273438 139.445312 232.164062 L 114.84375 238.640625 C 117.378906 245.242188 120.140625 249.535156 121.679688 249.785156 C 123.265625 250.042969 125.566406 243.980469 125.566406 243.980469 C 125.566406 243.980469 130.78125 253.78125 132.925781 252.707031 C 135.074219 251.636719 133.5625 241.761719 133.5625 241.761719 C 133.5625 241.761719 140.691406 245.5625 142.089844 243.773438 Z M 142.089844 243.773438 " fill-opacity="1" fill-rule="nonzero"/><path fill="#6d6e70" d="M 278.203125 128.65625 C 272.476562 112.855469 281.429688 102.40625 281.503906 102.320312 C 288.542969 109.945312 294.3125 119.222656 297.882812 130.335938 C 299.957031 137.132812 298.902344 142.386719 298.902344 142.386719 C 298.902344 142.386719 283.953125 144.523438 278.203125 128.65625 Z M 268.589844 115.386719 C 265.746094 107.40625 253.515625 110.835938 257.503906 122.402344 C 261.421875 133.761719 273.316406 128.65625 268.589844 115.386719 Z M 293.296875 146.042969 C 290.605469 144.886719 287.332031 148.707031 291.285156 150.652344 C 295.234375 152.601562 295.8125 147.117188 293.296875 146.042969 Z M 161.816406 220.675781 C 161.894531 220.542969 170.601562 205.925781 158.328125 196.570312 C 146.792969 187.777344 137.953125 196.386719 137.777344 196.5625 C 143.761719 207.425781 152.21875 215.195312 161.816406 220.675781 Z M 191.675781 91.066406 C 183.6875 93.230469 182.046875 100.695312 185.949219 106.0625 C 190.980469 112.992188 202.972656 108.363281 202.910156 99.636719 C 202.863281 93.550781 199.128906 89.046875 191.675781 91.066406 Z M 174.140625 101.683594 C 171.769531 96.957031 163.503906 99.953125 165.804688 105.578125 C 168.101562 111.203125 176.886719 107.164062 174.140625 101.683594 Z M 266.3125 210.632812 C 264.515625 207.042969 258.242188 209.320312 259.984375 213.589844 C 261.730469 217.859375 268.398438 214.792969 266.3125 210.632812 Z M 321.035156 90.578125 C 321.695312 93.625 324.179688 95.117188 326.1875 95.839844 C 325.703125 90.664062 324.769531 85.753906 323.628906 81.414062 C 323.621094 81.417969 319.886719 85.242188 321.035156 90.578125 Z M 111.996094 181.195312 C 112.019531 181.199219 120.53125 182.59375 124.121094 175.824219 C 127.714844 169.042969 123.367188 162.617188 121.515625 161.792969 C 116.179688 169.996094 113.492188 177.265625 113.492188 177.265625 C 112.933594 178.527344 112.4375 179.84375 111.996094 181.195312 Z M 119.191406 185.320312 C 121.683594 181.964844 127.390625 183.582031 124.359375 188.511719 C 121.707031 192.832031 116.550781 188.875 119.191406 185.320312 Z M 276.15625 70.152344 C 274.441406 61.394531 271.4375 53.664062 267.242188 49.308594 C 267.242188 49.308594 263.84375 57.113281 269.683594 65.960938 C 271.714844 69.042969 274.019531 70.089844 276.15625 70.152344 Z M 276.15625 70.152344 " fill-opacity="0.3" fill-rule="nonzero"/><g fill="#ffde59" fill-opacity="1"><g transform="translate(113.359907, 376.909547)"><g><path d="M 56.734375 -25.859375 C 56.734375 -23.234375 56.785156 -19.707031 56.890625 -15.28125 C 56.992188 -10.851562 57.046875 -7.40625 57.046875 -4.9375 C 57.046875 -3.1875 56.554688 -1.832031 55.578125 -0.875 C 54.597656 0.0703125 53.234375 0.546875 51.484375 0.546875 C 49.734375 0.546875 48.34375 0.0820312 47.3125 -0.84375 C 46.28125 -1.769531 45.765625 -3.003906 45.765625 -4.546875 L 45.765625 -25.390625 C 45.765625 -30.429688 45.609375 -34.351562 45.296875 -37.15625 C 44.992188 -39.96875 44.613281 -41.375 44.15625 -41.375 C 43.738281 -41.375 43.117188 -40.289062 42.296875 -38.125 C 41.472656 -35.96875 40.753906 -33.832031 40.140625 -31.71875 C 39.265625 -28.84375 38.363281 -25.5 37.4375 -21.6875 C 37.070312 -20.300781 36.375 -19.269531 35.34375 -18.59375 C 34.320312 -17.925781 32.960938 -17.59375 31.265625 -17.59375 C 27.816406 -17.59375 25.734375 -18.851562 25.015625 -21.375 L 24.078125 -24.703125 C 23.359375 -27.328125 22.613281 -29.769531 21.84375 -32.03125 C 21.226562 -33.832031 20.457031 -35.835938 19.53125 -38.046875 C 18.601562 -40.265625 18.007812 -41.375 17.75 -41.375 C 17.445312 -41.375 17.21875 -39.945312 17.0625 -37.09375 C 16.90625 -34.238281 16.773438 -30.441406 16.671875 -25.703125 C 16.617188 -23.847656 16.59375 -21.378906 16.59375 -18.296875 L 16.671875 -4.40625 C 16.671875 -3.007812 16.15625 -1.882812 15.125 -1.03125 C 14.09375 -0.1875 12.679688 0.234375 10.890625 0.234375 C 9.140625 0.234375 7.785156 -0.226562 6.828125 -1.15625 C 5.878906 -2.082031 5.40625 -3.675781 5.40625 -5.9375 L 5.484375 -15.671875 C 5.585938 -19.992188 5.640625 -23.414062 5.640625 -25.9375 C 5.640625 -32.9375 6 -38.554688 6.71875 -42.796875 C 7.4375 -47.046875 8.566406 -50.144531 10.109375 -52.09375 C 11.648438 -54.050781 13.679688 -55.03125 16.203125 -55.03125 C 19.242188 -55.03125 21.753906 -53.820312 23.734375 -51.40625 C 25.710938 -48.988281 27.203125 -46.257812 28.203125 -43.21875 C 29.210938 -40.1875 30.179688 -36.585938 31.109375 -32.421875 C 32.085938 -36.429688 33.140625 -39.992188 34.265625 -43.109375 C 35.398438 -46.222656 36.984375 -48.988281 39.015625 -51.40625 C 41.046875 -53.820312 43.53125 -55.03125 46.46875 -55.03125 C 49.144531 -55.03125 51.226562 -53.910156 52.71875 -51.671875 C 54.207031 -49.429688 55.25 -46.210938 55.84375 -42.015625 C 56.4375 -37.828125 56.734375 -32.441406 56.734375 -25.859375 Z M 56.734375 -25.859375 "/></g></g></g><g fill="#ff3131" fill-opacity="1"><g transform="translate(176.998446, 376.909547)"><g><path d="M 41.21875 -8.5625 C 42.195312 -8.414062 42.957031 -8.054688 43.5 -7.484375 C 44.039062 -6.921875 44.3125 -5.921875 44.3125 -4.484375 C 44.3125 -3.242188 43.988281 -2.1875 43.34375 -1.3125 C 42.695312 -0.4375 41.832031 0 40.75 0 C 38.539062 0 36.84375 -0.269531 35.65625 -0.8125 C 34.476562 -1.351562 33.398438 -2.34375 32.421875 -3.78125 C 31.285156 -2.082031 29.738281 -0.882812 27.78125 -0.1875 C 25.832031 0.5 23.546875 0.84375 20.921875 0.84375 C 15.109375 0.84375 10.679688 -0.828125 7.640625 -4.171875 C 4.609375 -7.515625 3.09375 -12.171875 3.09375 -18.140625 C 3.09375 -22.046875 3.890625 -25.515625 5.484375 -28.546875 C 7.078125 -31.585938 9.300781 -33.957031 12.15625 -35.65625 C 15.007812 -37.351562 18.289062 -38.203125 22 -38.203125 C 23.851562 -38.203125 25.578125 -37.84375 27.171875 -37.125 C 28.765625 -36.40625 29.972656 -35.453125 30.796875 -34.265625 L 30.953125 -35.28125 C 31.054688 -36 31.46875 -36.601562 32.1875 -37.09375 C 32.90625 -37.582031 34.035156 -37.828125 35.578125 -37.828125 C 37.222656 -37.828125 38.429688 -37.488281 39.203125 -36.8125 C 39.984375 -36.144531 40.375 -35.296875 40.375 -34.265625 C 40.375 -33.910156 40.347656 -33.628906 40.296875 -33.421875 C 39.984375 -31.671875 39.671875 -28.738281 39.359375 -24.625 C 39.210938 -22.71875 39.140625 -20.273438 39.140625 -17.296875 L 39.140625 -13.4375 C 39.140625 -11.9375 39.265625 -10.785156 39.515625 -9.984375 C 39.773438 -9.191406 40.34375 -8.71875 41.21875 -8.5625 Z M 28.328125 -13.890625 C 28.378906 -16.003906 28.40625 -19.273438 28.40625 -23.703125 C 28.40625 -25.453125 27.828125 -26.878906 26.671875 -27.984375 C 25.515625 -29.085938 24.035156 -29.640625 22.234375 -29.640625 C 19.910156 -29.640625 18.003906 -28.570312 16.515625 -26.4375 C 15.023438 -24.300781 14.28125 -21.5625 14.28125 -18.21875 C 14.28125 -15.03125 14.945312 -12.484375 16.28125 -10.578125 C 17.625 -8.671875 19.425781 -7.71875 21.6875 -7.71875 C 23.800781 -7.71875 25.421875 -8.242188 26.546875 -9.296875 C 27.679688 -10.359375 28.273438 -11.890625 28.328125 -13.890625 Z M 28.328125 -13.890625 "/></g></g></g><g fill="#8c52ff" fill-opacity="1"><g transform="translate(219.524029, 376.909547)"><g><path d="M 27.09375 -15.359375 C 28.789062 -15.359375 30.023438 -15.023438 30.796875 -14.359375 C 31.566406 -13.691406 31.953125 -12.609375 31.953125 -11.109375 C 31.953125 -7.710938 30.867188 -4.984375 28.703125 -2.921875 C 26.546875 -0.867188 23.820312 0.15625 20.53125 0.15625 C 16.050781 0.15625 12.78125 -1.65625 10.71875 -5.28125 C 8.664062 -8.914062 7.640625 -14.664062 7.640625 -22.53125 C 7.640625 -24.90625 7.664062 -26.628906 7.71875 -27.703125 C 7.351562 -27.753906 6.757812 -27.78125 5.9375 -27.78125 C 3.007812 -27.832031 1.546875 -29.25 1.546875 -32.03125 C 1.546875 -33.46875 1.914062 -34.546875 2.65625 -35.265625 C 3.40625 -35.992188 4.734375 -36.332031 6.640625 -36.28125 L 8.34375 -36.203125 C 8.695312 -39.390625 9.285156 -43.300781 10.109375 -47.9375 C 10.316406 -49.164062 10.894531 -50.101562 11.84375 -50.75 C 12.800781 -51.394531 14.023438 -51.71875 15.515625 -51.71875 C 17.265625 -51.71875 18.628906 -51.304688 19.609375 -50.484375 C 20.585938 -49.660156 21.078125 -48.65625 21.078125 -47.46875 L 21 -46.859375 L 20.609375 -44.390625 C 19.992188 -40.160156 19.582031 -37.273438 19.375 -35.734375 C 21.125 -35.628906 22.460938 -35.578125 23.390625 -35.578125 C 26.015625 -35.523438 27.328125 -34.164062 27.328125 -31.5 C 27.328125 -30.15625 26.960938 -29.148438 26.234375 -28.484375 C 25.515625 -27.816406 24.304688 -27.484375 22.609375 -27.484375 L 18.75 -27.484375 C 18.695312 -26.453125 18.671875 -24.800781 18.671875 -22.53125 C 18.671875 -18.726562 18.757812 -15.8125 18.9375 -13.78125 C 19.125 -11.75 19.394531 -10.367188 19.75 -9.640625 C 20.113281 -8.921875 20.582031 -8.5625 21.15625 -8.5625 C 21.875 -8.5625 22.332031 -8.789062 22.53125 -9.25 C 22.738281 -9.71875 22.84375 -10.546875 22.84375 -11.734375 C 22.84375 -14.148438 24.257812 -15.359375 27.09375 -15.359375 Z M 27.09375 -15.359375 "/></g></g></g><g fill="#5271ff" fill-opacity="1"><g transform="translate(257.715122, 376.909547)"><g><path d="M 13.046875 -40.296875 C 10.984375 -40.296875 9.296875 -40.953125 7.984375 -42.265625 C 6.671875 -43.578125 6.015625 -45.234375 6.015625 -47.234375 C 6.015625 -49.242188 6.671875 -50.878906 7.984375 -52.140625 C 9.296875 -53.398438 11.007812 -54.03125 13.125 -54.03125 C 15.175781 -54.03125 16.84375 -53.398438 18.125 -52.140625 C 19.414062 -50.878906 20.0625 -49.269531 20.0625 -47.3125 C 20.0625 -45.3125 19.40625 -43.640625 18.09375 -42.296875 C 16.78125 -40.960938 15.097656 -40.296875 13.046875 -40.296875 Z M 11.96875 -0.46875 C 10.320312 -0.46875 8.957031 -0.878906 7.875 -1.703125 C 6.789062 -2.523438 6.273438 -3.628906 6.328125 -5.015625 L 6.953125 -33.5 C 7.003906 -34.882812 7.539062 -35.972656 8.5625 -36.765625 C 9.59375 -37.566406 10.929688 -37.96875 12.578125 -37.96875 C 14.273438 -37.96875 15.664062 -37.554688 16.75 -36.734375 C 17.832031 -35.910156 18.347656 -34.78125 18.296875 -33.34375 L 17.671875 -4.9375 C 17.617188 -3.550781 17.066406 -2.457031 16.015625 -1.65625 C 14.960938 -0.863281 13.613281 -0.46875 11.96875 -0.46875 Z M 11.96875 -0.46875 "/></g></g></g><g fill="#00bf63" fill-opacity="1"><g transform="translate(279.051142, 376.909547)"><g><path d="M 34.8125 0.390625 C 33.625 0.390625 32.257812 0.3125 30.71875 0.15625 C 27.375 -0.101562 24.90625 -0.234375 23.3125 -0.234375 C 21.050781 -0.234375 18.171875 -0.128906 14.671875 0.078125 C 12.660156 0.234375 10.988281 0.3125 9.65625 0.3125 C 7.125 0.3125 5.265625 -0.0625 4.078125 -0.8125 C 2.898438 -1.5625 2.3125 -2.578125 2.3125 -3.859375 C 2.3125 -5.097656 2.929688 -6.332031 4.171875 -7.5625 L 5.859375 -9.34375 C 16.410156 -20.195312 23.207031 -27.164062 26.25 -30.25 C 25.882812 -30.207031 24.644531 -30.09375 22.53125 -29.90625 C 20.425781 -29.726562 18.601562 -29.640625 17.0625 -29.640625 C 15.875 -29.640625 14.535156 -29.703125 13.046875 -29.828125 C 11.554688 -29.960938 10.296875 -30.128906 9.265625 -30.328125 C 6.273438 -30.953125 4.78125 -32.523438 4.78125 -35.046875 C 4.78125 -36.378906 5.140625 -37.484375 5.859375 -38.359375 C 6.585938 -39.234375 7.617188 -39.59375 8.953125 -39.4375 C 14.359375 -38.820312 18.707031 -38.515625 22 -38.515625 C 23.90625 -38.515625 26.503906 -38.671875 29.796875 -38.984375 C 32.578125 -39.179688 34.453125 -39.28125 35.421875 -39.28125 C 37.691406 -39.28125 39.238281 -38.972656 40.0625 -38.359375 C 40.882812 -37.742188 41.296875 -36.816406 41.296875 -35.578125 C 41.296875 -33.628906 40.472656 -31.832031 38.828125 -30.1875 L 30.875 -22.3125 L 17.4375 -8.796875 L 19.84375 -8.875 C 23.382812 -9.03125 25.414062 -9.109375 25.9375 -9.109375 C 27.476562 -9.109375 29.210938 -9.039062 31.140625 -8.90625 C 33.078125 -8.78125 34.582031 -8.613281 35.65625 -8.40625 C 37.976562 -7.945312 39.140625 -6.535156 39.140625 -4.171875 C 39.140625 -2.878906 38.773438 -1.796875 38.046875 -0.921875 C 37.328125 -0.046875 36.25 0.390625 34.8125 0.390625 Z M 34.8125 0.390625 "/></g></g></g></svg>