<svg xmlns="http://www.w3.org/2000/svg" xmlns:xlink="http://www.w3.org/1999/xlink" width="566" zoomAndPan="magnify" viewBox="0 0 425.03998 425.249996" height="566" preserveAspectRatio="xMidYMid meet" version="1.0"><defs><clipPath id="719a2a11fa"><path d="M 174 0.105469 L 245 0.105469 L 245 41 L 174 41 Z M 174 0.105469 " clip-rule="nonzero"/></clipPath><clipPath id="8e22a3284d"><path d="M 0 173 L 424.082031 173 L 424.082031 279 L 0 279 Z M 0 173 " clip-rule="nonzero"/></clipPath><clipPath id="2ae9b8e7aa"><path d="M 0 180 L 424.082031 180 L 424.082031 371 L 0 371 Z M 0 180 " clip-rule="nonzero"/></clipPath></defs><path fill="#f29226" d="M 282.5625 55.34375 C 282.5625 55.34375 301.6875 46.207031 296.6875 22.070312 C 296.6875 22.070312 295.386719 2.0625 314.945312 13.804688 C 314.945312 13.804688 350.589844 42.078125 314.945312 86.222656 C 314.945312 86.222656 272.566406 75.351562 282.5625 55.34375 Z M 282.5625 55.34375 " fill-opacity="1" fill-rule="nonzero"/><path fill="#c67229" d="M 296.6875 22.9375 C 297.777344 29.027344 297.558594 34.03125 296.253906 38.164062 C 305.816406 34.246094 321.683594 36.640625 329.722656 38.378906 C 327.984375 30.769531 324.289062 24.679688 321.03125 20.546875 C 311.25 17.9375 301.46875 20.980469 296.6875 22.9375 Z M 296.6875 22.9375 " fill-opacity="1" fill-rule="nonzero"/><path fill="#c67229" d="M 319.726562 79.699219 C 325.378906 71.433594 328.421875 63.824219 329.722656 56.863281 C 318.207031 46.425781 299.296875 44.46875 293.863281 44.035156 C 292.996094 45.554688 290.167969 49.472656 289.082031 50.777344 C 302.992188 57.082031 314.511719 69.695312 319.726562 79.699219 Z M 319.726562 79.699219 " fill-opacity="1" fill-rule="nonzero"/><path fill="#faaa4f" d="M 296.6875 22.070312 C 300.167969 38.816406 292.125 48.382812 286.691406 52.515625 L 296.6875 59.039062 C 296.6875 59.039062 314.726562 31.203125 301.035156 10.761719 C 296.039062 13.804688 296.6875 22.070312 296.6875 22.070312 Z M 296.6875 22.070312 " fill-opacity="1" fill-rule="nonzero"/><path fill="#ec8623" d="M 303.210938 45.339844 C 299.078125 44.6875 295.820312 44.25 293.863281 44.035156 C 292.777344 45.992188 291.691406 47.511719 290.386719 49.035156 C 289.953125 49.6875 289.300781 50.339844 289.082031 50.777344 C 292.34375 52.296875 295.601562 54.039062 298.429688 56.210938 C 299.730469 53.601562 301.6875 49.90625 303.210938 45.339844 Z M 303.210938 45.339844 " fill-opacity="1" fill-rule="nonzero"/><path fill="#ec8623" d="M 296.253906 38.164062 C 298.863281 37.074219 302.121094 36.640625 305.382812 36.207031 C 306.253906 31.203125 306.46875 25.550781 304.949219 20.328125 C 301.46875 20.980469 298.644531 22.070312 296.472656 22.9375 C 297.777344 29.027344 297.558594 34.03125 296.253906 38.164062 Z M 296.253906 38.164062 " fill-opacity="1" fill-rule="nonzero"/><path fill="#f29226" d="M 138.035156 55.34375 C 138.035156 55.34375 118.910156 46.207031 123.90625 22.070312 C 123.90625 22.070312 125.210938 2.0625 105.652344 13.804688 C 105.652344 13.804688 70.007812 42.078125 105.652344 86.222656 C 105.652344 86.222656 148.03125 75.351562 138.035156 55.34375 Z M 138.035156 55.34375 " fill-opacity="1" fill-rule="nonzero"/><path fill="#c67229" d="M 123.90625 22.9375 C 122.820312 29.027344 123.039062 34.03125 124.34375 38.164062 C 114.78125 34.246094 98.914062 36.640625 90.871094 38.378906 C 92.613281 30.769531 96.304688 24.679688 99.566406 20.546875 C 109.347656 17.9375 119.125 20.980469 123.90625 22.9375 Z M 123.90625 22.9375 " fill-opacity="1" fill-rule="nonzero"/><path fill="#c67229" d="M 100.871094 79.699219 C 95.21875 71.433594 92.175781 63.824219 90.65625 56.863281 C 102.175781 46.425781 121.082031 44.46875 126.515625 44.035156 C 127.386719 45.554688 130.210938 49.472656 131.296875 50.777344 C 117.605469 57.082031 106.085938 69.695312 100.871094 79.699219 Z M 100.871094 79.699219 " fill-opacity="1" fill-rule="nonzero"/><path fill="#faaa4f" d="M 123.90625 22.070312 C 120.429688 38.816406 128.472656 48.382812 133.90625 52.515625 L 123.90625 59.039062 C 123.90625 59.039062 105.867188 31.203125 119.5625 10.761719 C 124.558594 13.804688 123.90625 22.070312 123.90625 22.070312 Z M 123.90625 22.070312 " fill-opacity="1" fill-rule="nonzero"/><path fill="#ec8623" d="M 117.386719 45.339844 C 121.515625 44.6875 124.777344 44.25 126.734375 44.035156 C 127.820312 45.992188 128.90625 47.511719 130.210938 49.035156 C 130.644531 49.6875 131.296875 50.339844 131.515625 50.777344 C 128.253906 52.296875 124.996094 54.039062 122.167969 56.210938 C 120.863281 53.601562 118.910156 49.90625 117.386719 45.339844 Z M 117.386719 45.339844 " fill-opacity="1" fill-rule="nonzero"/><path fill="#ec8623" d="M 124.34375 38.164062 C 121.734375 37.074219 118.472656 36.640625 115.214844 36.207031 C 114.34375 31.203125 114.128906 25.550781 115.648438 20.328125 C 119.125 20.980469 121.953125 22.070312 124.125 22.9375 C 122.820312 29.027344 123.039062 34.03125 124.34375 38.164062 Z M 124.34375 38.164062 " fill-opacity="1" fill-rule="nonzero"/><g clip-path="url(#719a2a11fa)"><path fill="#f29226" d="M 174.546875 33.378906 C 174.546875 33.378906 174.546875 11.847656 199.976562 0.105469 C 199.976562 0.105469 194.324219 9.671875 199.976562 13.589844 C 199.976562 13.589844 207.148438 7.28125 219.753906 5.542969 C 219.753906 5.542969 214.972656 9.457031 217.363281 17.503906 C 217.363281 17.503906 237.140625 4.019531 244.3125 9.457031 C 244.3125 9.457031 232.359375 17.503906 241.921875 27.722656 C 241.921875 27.941406 188.890625 50.992188 174.546875 33.378906 Z M 174.546875 33.378906 " fill-opacity="1" fill-rule="nonzero"/></g><path fill="#fbb616" d="M 88.480469 174.300781 C 88.480469 174.300781 70.878906 27.722656 214.320312 21.851562 C 214.320312 21.851562 334.289062 13.152344 341.460938 166.035156 C 341.460938 166.035156 157.8125 211.050781 88.480469 174.300781 Z M 88.480469 174.300781 " fill-opacity="1" fill-rule="nonzero"/><path fill="#ffd034" d="M 88.480469 174.300781 C 91.960938 176.039062 95.652344 177.777344 99.566406 179.082031 C 100.21875 159.074219 108.695312 36.859375 214.320312 21.851562 C 70.878906 27.722656 88.480469 174.300781 88.480469 174.300781 Z M 88.480469 174.300781 " fill-opacity="1" fill-rule="nonzero"/><path fill="#f19d1f" d="M 86.742188 161.46875 C 87.179688 171.253906 89.351562 182.128906 89.351562 182.128906 C 158.679688 218.878906 341.894531 169.296875 341.894531 169.296875 C 341.675781 163.859375 340.589844 154.507812 340.15625 149.507812 C 209.972656 177.777344 124.34375 168.863281 86.742188 161.46875 Z M 86.742188 161.46875 " fill-opacity="1" fill-rule="nonzero"/><path stroke-linecap="butt" transform="matrix(2.173352, 0, 0, 2.174705, 0.243983, 0.105018)" fill="none" stroke-linejoin="miter" d="M 135.000866 61.199254 C 135.000866 61.703992 134.973906 62.206934 134.919986 62.709876 C 134.866066 63.211021 134.786983 63.710371 134.68094 64.204331 C 134.574897 64.698292 134.443691 65.186864 134.285526 65.670048 C 134.12736 66.153231 133.944031 66.627434 133.73554 67.092655 C 133.528846 67.559672 133.296989 68.014116 133.03997 68.459579 C 132.782951 68.905042 132.504363 69.336135 132.20241 69.756451 C 131.900457 70.17497 131.576936 70.57912 131.231847 70.9689 C 130.886758 71.35868 130.521899 71.732294 130.137268 72.089742 C 129.752638 72.445393 129.351831 72.784879 128.931254 73.104607 C 128.510677 73.424334 128.073924 73.724303 127.622792 74.004513 C 127.169862 74.284724 126.704352 74.54338 126.224462 74.782277 C 125.74637 75.019378 125.255697 75.234925 124.752442 75.42712 C 124.250985 75.621112 123.738743 75.789957 123.219312 75.937247 C 122.698084 76.082741 122.171464 76.204884 121.637654 76.303676 C 121.105642 76.402468 120.568238 76.476113 120.027239 76.526408 C 119.48624 76.574906 118.943444 76.600053 118.400648 76.600053 C 117.856054 76.600053 117.313258 76.574906 116.772259 76.526408 C 116.23126 76.476113 115.693856 76.402468 115.161844 76.303676 C 114.628034 76.204884 114.101414 76.082741 113.581983 75.937247 C 113.060755 75.789957 112.550311 75.621112 112.047056 75.42712 C 111.545598 75.234925 111.054925 75.019378 110.575036 74.782277 C 110.095146 74.54338 109.629636 74.284724 109.176706 74.004513 C 108.725574 73.724303 108.288821 73.424334 107.868244 73.104607 C 107.449464 72.784879 107.04686 72.445393 106.66223 72.089742 C 106.277599 71.732294 105.912739 71.35868 105.56765 70.9689 C 105.222561 70.57912 104.899041 70.17497 104.597088 69.756451 C 104.295135 69.336135 104.016547 68.905042 103.759528 68.459579 C 103.504306 68.014116 103.272449 67.559672 103.063958 67.092655 C 102.855467 66.627434 102.672138 66.153231 102.513972 65.670048 C 102.357604 65.186864 102.224601 64.698292 102.118558 64.204331 C 102.012515 63.710371 101.933432 63.211021 101.879512 62.709876 C 101.827389 62.206934 101.800429 61.703992 101.800429 61.199254 C 101.800429 60.696312 101.827389 60.19337 101.879512 59.690428 C 101.933432 59.189282 102.012515 58.689933 102.118558 58.195972 C 102.224601 57.700215 102.357604 57.211643 102.513972 56.730256 C 102.672138 56.247072 102.855467 55.77287 103.063958 55.305852 C 103.272449 54.840631 103.504306 54.386187 103.759528 53.940725 C 104.016547 53.495262 104.295135 53.064169 104.597088 52.643853 C 104.899041 52.225333 105.222561 51.819387 105.56765 51.429608 C 105.912739 51.039828 106.277599 50.66801 106.66223 50.310562 C 107.04686 49.953114 107.449464 49.615424 107.868244 49.295697 C 108.288821 48.97597 108.725574 48.676001 109.176706 48.39579 C 109.629636 48.11558 110.095146 47.856924 110.575036 47.618027 C 111.054925 47.380925 111.545598 47.165379 112.047056 46.971387 C 112.550311 46.779191 113.060755 46.610347 113.581983 46.463056 C 114.101414 46.317563 114.628034 46.193623 115.161844 46.096627 C 115.693856 45.997835 116.23126 45.92419 116.772259 45.873896 C 117.313258 45.825398 117.856054 45.800251 118.400648 45.800251 C 118.943444 45.800251 119.48624 45.825398 120.027239 45.873896 C 120.568238 45.92419 121.105642 45.997835 121.637654 46.096627 C 122.171464 46.193623 122.698084 46.317563 123.219312 46.463056 C 123.738743 46.610347 124.250985 46.779191 124.752442 46.971387 C 125.255697 47.165379 125.74637 47.380925 126.224462 47.618027 C 126.704352 47.856924 127.169862 48.11558 127.622792 48.39579 C 128.073924 48.676001 128.510677 48.97597 128.931254 49.295697 C 129.351831 49.615424 129.752638 49.953114 130.137268 50.310562 C 130.521899 50.66801 130.886758 51.039828 131.231847 51.429608 C 131.576936 51.819387 131.900457 52.225333 132.20241 52.643853 C 132.504363 53.064169 132.782951 53.495262 133.03997 53.940725 C 133.296989 54.386187 133.528846 54.840631 133.73554 55.305852 C 133.944031 55.77287 134.12736 56.247072 134.285526 56.730256 C 134.443691 57.211643 134.574897 57.700215 134.68094 58.195972 C 134.786983 58.689933 134.866066 59.189282 134.919986 59.690428 C 134.973906 60.19337 135.000866 60.696312 135.000866 61.199254 Z M 135.000866 61.199254 " stroke="#5c2112" stroke-width="2.692" stroke-opacity="1" stroke-miterlimit="10"/><path fill="#5c2112" d="M 204.539062 138.851562 C 204.539062 137.765625 204.757812 136.894531 205.191406 136.023438 C 205.625 135.152344 206.058594 134.285156 206.710938 133.632812 C 207.800781 132.109375 209.539062 130.804688 211.710938 130.371094 C 212.796875 130.152344 213.882812 129.933594 214.972656 130.152344 C 216.058594 130.371094 217.144531 130.804688 218.015625 131.238281 C 219.753906 132.328125 220.839844 134.066406 221.273438 136.023438 C 219.316406 135.589844 217.796875 134.9375 216.492188 134.71875 C 215.1875 134.5 214.101562 134.71875 213.015625 134.9375 C 211.929688 135.152344 210.625 135.804688 209.320312 136.460938 C 207.582031 137.328125 206.277344 138.199219 204.539062 138.851562 Z M 204.539062 138.851562 " fill-opacity="1" fill-rule="nonzero"/><path fill="#5c2112" d="M 306.902344 118.191406 C 306.035156 116.015625 304.730469 113.84375 303.210938 112.101562 C 302.773438 111.667969 302.339844 111.230469 302.121094 111.015625 C 301.6875 110.796875 301.253906 110.578125 301.035156 110.578125 C 300.601562 110.578125 300.382812 110.578125 300.167969 111.015625 C 299.949219 111.230469 299.515625 111.667969 299.296875 112.101562 C 298.644531 112.972656 298.210938 114.058594 297.777344 114.929688 L 296.472656 118.410156 L 294.082031 125.367188 L 289.082031 123.191406 L 294.296875 113.40625 C 294.949219 112.101562 295.601562 111.015625 296.6875 110.144531 C 297.125 109.710938 297.777344 109.058594 298.644531 108.839844 C 299.296875 108.40625 300.382812 108.1875 301.253906 108.40625 C 302.121094 108.621094 302.773438 109.058594 303.210938 109.710938 C 303.644531 110.144531 304.078125 110.796875 304.511719 111.230469 C 305.164062 112.320312 305.816406 113.40625 306.253906 114.710938 C 306.6875 115.800781 307.121094 117.105469 307.339844 118.191406 Z M 306.902344 118.191406 " fill-opacity="1" fill-rule="nonzero"/><path fill="#5c2112" d="M 114.5625 125.152344 C 114.996094 123.628906 115.648438 122.105469 116.519531 120.582031 C 116.953125 119.929688 117.386719 119.0625 118.039062 118.410156 C 118.257812 117.972656 118.691406 117.757812 119.125 117.539062 C 119.5625 117.320312 120.214844 117.105469 120.648438 116.886719 C 121.300781 116.886719 121.953125 116.886719 122.386719 117.105469 C 123.039062 117.320312 123.472656 117.539062 123.691406 117.972656 C 124.558594 118.625 124.996094 119.277344 125.429688 120.148438 C 126.296875 121.671875 127.167969 123.191406 127.820312 124.5 L 127.820312 124.28125 L 133.035156 134.285156 L 128.035156 136.460938 L 124.125 125.804688 L 124.125 125.585938 C 123.691406 124.0625 123.253906 122.757812 122.605469 121.453125 C 122.386719 120.800781 121.953125 120.367188 121.515625 119.929688 C 121.082031 119.496094 120.863281 119.277344 120.429688 119.277344 C 119.996094 119.277344 119.5625 119.496094 119.125 119.929688 C 118.691406 120.367188 118.039062 120.800781 117.605469 121.453125 C 116.734375 122.539062 115.867188 123.84375 115.433594 125.367188 Z M 114.5625 125.152344 " fill-opacity="1" fill-rule="nonzero"/><path stroke-linecap="butt" transform="matrix(2.173352, 0, 0, 2.174705, 0.243983, 0.105018)" fill="none" stroke-linejoin="miter" d="M 93.399669 61.299842 C 93.399669 69.79956 86.000026 76.700641 76.79945 76.700641 C 67.600671 76.700641 60.199231 69.79956 60.199231 61.299842 C 60.199231 52.800124 67.600671 45.900839 76.79945 45.900839 C 85.899375 45.900839 93.399669 52.800124 93.399669 61.299842 Z M 93.399669 61.299842 " stroke="#5c2112" stroke-width="2.692" stroke-opacity="1" stroke-miterlimit="10"/><path fill="#ffffff" d="M 114.78125 185.824219 L 107.609375 156.03125 L 146.074219 155.597656 L 151.945312 186.257812 Z M 114.78125 185.824219 " fill-opacity="1" fill-rule="nonzero"/><path fill="#ffffff" d="M 283.214844 182.5625 L 284.300781 147.984375 L 318.859375 146.898438 L 322.335938 181.476562 C 322.335938 181.476562 289.082031 184.953125 283.214844 182.5625 Z M 283.214844 182.5625 " fill-opacity="1" fill-rule="nonzero"/><path fill="#fbb616" d="M 164.984375 388.941406 L 170.417969 400.902344 C 179.546875 415.039062 167.375 416.996094 167.375 416.996094 C 119.125 431.132812 71.964844 415.910156 71.964844 415.910156 C 58.925781 408.949219 97.175781 388.941406 97.175781 388.941406 C 97.175781 388.941406 109.128906 381.546875 98.914062 337.621094 C 98.914062 337.621094 84.570312 189.738281 61.96875 166.035156 C 61.96875 166.035156 225.1875 197.132812 363.628906 149.289062 C 363.628906 149.289062 330.8125 326.746094 361.890625 383.289062 C 361.890625 383.289062 399.054688 406.121094 374.929688 412.210938 C 374.929688 412.210938 307.121094 428.738281 293.648438 412.863281 C 293.648438 412.863281 281.691406 411.992188 291.472656 386.550781 C 301.253906 360.886719 291.472656 386.550781 291.472656 386.550781 C 291.472656 386.550781 243.660156 365.890625 164.984375 388.941406 Z M 164.984375 388.941406 " fill-opacity="1" fill-rule="nonzero"/><path fill="#fbdf94" d="M 164.984375 388.941406 C 197.585938 380.460938 239.746094 378.9375 239.746094 378.9375 C 284.082031 384.15625 290.605469 384.808594 291.039062 386.332031 C 310.816406 299.777344 285.605469 253.894531 285.605469 253.894531 C 238.660156 193.4375 182.371094 237.148438 182.371094 237.148438 C 182.371094 237.148438 122.605469 269.117188 164.984375 388.941406 Z M 164.984375 388.941406 " fill-opacity="1" fill-rule="nonzero"/><path fill="#935f26" d="M 153.898438 143.636719 C 153.464844 143.636719 153.03125 143.417969 152.597656 143.199219 C 151.507812 142.546875 151.074219 141.027344 151.726562 139.9375 C 151.945312 139.503906 158.03125 129.5 167.59375 129.28125 C 173.460938 129.066406 178.894531 132.542969 184.109375 139.503906 C 184.980469 140.589844 184.542969 142.113281 183.675781 142.765625 C 182.589844 143.636719 181.285156 143.199219 180.414062 142.332031 C 176.285156 136.675781 172.15625 133.847656 167.808594 134.066406 C 160.855469 134.285156 155.855469 142.546875 155.855469 142.546875 C 155.421875 143.199219 154.550781 143.636719 153.898438 143.636719 Z M 153.898438 143.636719 " fill-opacity="1" fill-rule="nonzero"/><path fill="#935f26" d="M 243.660156 140.15625 C 243.226562 140.15625 242.789062 139.9375 242.355469 139.722656 C 241.269531 139.070312 240.835938 137.546875 241.484375 136.460938 C 241.703125 136.023438 247.789062 126.019531 257.351562 125.804688 C 263.21875 125.585938 268.652344 129.066406 273.867188 136.023438 C 274.519531 137.113281 274.304688 138.417969 273.433594 139.285156 C 272.347656 140.15625 270.828125 139.722656 270.175781 138.851562 C 266.046875 133.195312 261.914062 130.371094 257.570312 130.585938 C 250.613281 130.804688 245.617188 139.070312 245.617188 139.070312 C 245.179688 139.722656 244.527344 140.15625 243.660156 140.15625 Z M 243.660156 140.15625 " fill-opacity="1" fill-rule="nonzero"/><path fill="#f6a11d" d="M 235.617188 39.25 C 235.617188 43.597656 226.707031 46.859375 215.625 46.859375 C 204.757812 47.078125 195.84375 43.597656 195.84375 39.25 C 195.84375 34.898438 204.757812 31.636719 215.839844 31.636719 C 226.707031 31.636719 235.617188 35.117188 235.617188 39.25 Z M 235.617188 39.25 " fill-opacity="1" fill-rule="nonzero"/><path fill="#f6a11d" d="M 188.890625 48.820312 C 188.890625 52.296875 182.804688 55.125 175.199219 55.125 C 167.59375 55.125 161.507812 52.296875 161.507812 48.820312 C 161.507812 45.339844 167.59375 42.511719 175.199219 42.511719 C 182.804688 42.511719 188.890625 45.339844 188.890625 48.820312 Z M 188.890625 48.820312 " fill-opacity="1" fill-rule="nonzero"/><path fill="#f6a11d" d="M 231.707031 57.515625 C 231.707031 57.804688 231.644531 58.085938 231.527344 58.367188 C 231.40625 58.644531 231.230469 58.917969 230.996094 59.183594 C 230.757812 59.445312 230.472656 59.695312 230.132812 59.933594 C 229.789062 60.171875 229.402344 60.390625 228.96875 60.59375 C 228.535156 60.792969 228.0625 60.976562 227.550781 61.132812 C 227.042969 61.292969 226.503906 61.425781 225.9375 61.535156 C 225.371094 61.644531 224.785156 61.726562 224.183594 61.78125 C 223.582031 61.839844 222.972656 61.867188 222.359375 61.867188 C 221.746094 61.867188 221.140625 61.839844 220.539062 61.78125 C 219.933594 61.726562 219.351562 61.644531 218.785156 61.535156 C 218.21875 61.425781 217.679688 61.292969 217.167969 61.132812 C 216.660156 60.976562 216.1875 60.792969 215.753906 60.59375 C 215.320312 60.390625 214.929688 60.171875 214.589844 59.933594 C 214.25 59.695312 213.960938 59.445312 213.726562 59.183594 C 213.492188 58.917969 213.3125 58.644531 213.195312 58.367188 C 213.074219 58.085938 213.015625 57.804688 213.015625 57.515625 C 213.015625 57.230469 213.074219 56.949219 213.195312 56.667969 C 213.3125 56.386719 213.492188 56.117188 213.726562 55.851562 C 213.960938 55.589844 214.25 55.339844 214.589844 55.101562 C 214.929688 54.863281 215.320312 54.644531 215.753906 54.441406 C 216.1875 54.238281 216.660156 54.058594 217.167969 53.902344 C 217.679688 53.742188 218.21875 53.609375 218.785156 53.5 C 219.351562 53.390625 219.933594 53.308594 220.539062 53.25 C 221.140625 53.195312 221.746094 53.167969 222.359375 53.167969 C 222.972656 53.167969 223.582031 53.195312 224.183594 53.25 C 224.785156 53.308594 225.371094 53.390625 225.9375 53.5 C 226.503906 53.609375 227.042969 53.742188 227.550781 53.902344 C 228.0625 54.058594 228.535156 54.238281 228.96875 54.441406 C 229.402344 54.644531 229.789062 54.863281 230.132812 55.101562 C 230.472656 55.339844 230.757812 55.589844 230.996094 55.851562 C 231.230469 56.117188 231.40625 56.386719 231.527344 56.667969 C 231.644531 56.949219 231.707031 57.230469 231.707031 57.515625 Z M 231.707031 57.515625 " fill-opacity="1" fill-rule="nonzero"/><path fill="#f7d42c" d="M 64.792969 271.726562 C 70.660156 273.898438 76.09375 275.207031 81.527344 275.859375 C 83.046875 267.8125 83.484375 257.371094 80.441406 244.542969 C 75.007812 244.324219 70.226562 243.453125 65.660156 241.933594 C 66.75 249.109375 67.617188 260.851562 64.792969 271.726562 Z M 64.792969 271.726562 " fill-opacity="1" fill-rule="nonzero"/><path fill="#e6e6e5" d="M 213.882812 262.375 C 156.726562 198.4375 43.058594 173.429688 43.058594 173.429688 C 35.019531 174.734375 23.5 186.914062 23.5 186.914062 C 23.5 186.914062 184.328125 246.714844 207.148438 271.074219 L 222.578125 269.117188 C 222.578125 269.117188 355.804688 203.222656 406.878906 184.300781 C 406.878906 184.300781 392.097656 174.300781 379.929688 174.300781 C 379.929688 174.300781 234.53125 224.753906 210.40625 265.203125 Z M 213.882812 262.375 " fill-opacity="1" fill-rule="nonzero"/><g clip-path="url(#8e22a3284d)"><path fill="#32bae3" d="M 415.570312 174.734375 L 424.046875 181.039062 L 235.402344 262.808594 C 235.402344 262.808594 216.925781 289.558594 189.324219 272.160156 C 189.324219 272.160156 9.371094 180.171875 0.460938 180.171875 L 4.808594 173.429688 L 194.976562 258.894531 C 194.976562 258.894531 213.449219 283.035156 232.574219 257.589844 Z M 415.570312 174.734375 " fill-opacity="1" fill-rule="nonzero"/></g><g clip-path="url(#2ae9b8e7aa)"><path fill="#25819e" d="M 192.367188 266.941406 C 192.367188 266.941406 215.1875 303.257812 235.402344 262.808594 L 424.046875 181.039062 C 424.046875 181.039062 338.199219 307.824219 331.898438 332.398438 L 234.097656 362.847656 C 234.097656 362.847656 216.710938 379.589844 200.84375 362.191406 L 91.523438 334.574219 L 0.242188 180.171875 Z M 192.367188 266.941406 " fill-opacity="1" fill-rule="nonzero"/></g><path fill="#217590" d="M 334.941406 319.351562 C 246.265625 372.414062 235.183594 283.035156 235.183594 283.035156 L 227.792969 366.976562 C 231.488281 365.019531 233.878906 362.847656 233.878906 362.847656 L 331.679688 332.398438 C 332.550781 329.136719 334.941406 323.917969 338.199219 317.394531 Z M 334.941406 319.351562 " fill-opacity="1" fill-rule="nonzero"/><path fill="#1a5e74" d="M 192.367188 266.941406 L 200.84375 362.191406 C 200.84375 362.191406 215.40625 388.941406 234.097656 362.847656 L 235.402344 262.808594 C 235.402344 262.808594 218.015625 289.125 192.367188 266.941406 Z M 192.367188 266.941406 " fill-opacity="1" fill-rule="nonzero"/><path fill="#c2c1c0" d="M 388.40625 175.605469 C 334.070312 191.695312 246.265625 242.148438 246.265625 242.148438 C 246.265625 242.148438 394.054688 173.863281 388.40625 175.605469 Z M 388.40625 175.605469 " fill-opacity="1" fill-rule="nonzero"/><path fill="#c2c1c0" d="M 34.582031 176.910156 C 34.582031 176.910156 163.898438 221.488281 179.761719 244.976562 C 179.761719 244.976562 88.917969 198.21875 34.582031 176.910156 Z M 34.582031 176.910156 " fill-opacity="1" fill-rule="nonzero"/><path fill="#217590" d="M 84.351562 323.265625 C 84.351562 323.265625 181.5 365.457031 194.542969 300.648438 L 200.84375 362.191406 L 91.523438 334.574219 Z M 84.351562 323.265625 " fill-opacity="1" fill-rule="nonzero"/><path fill="#1e6b83" d="M 380.363281 246.714844 C 376.015625 245.847656 352.109375 241.714844 351.457031 255.414062 C 351.457031 255.414062 350.804688 263.679688 361.457031 265.417969 C 361.457031 265.417969 346.023438 262.59375 347.980469 276.945312 C 347.980469 276.945312 349.5 281.945312 355.371094 280.859375 C 352.109375 281.945312 347.546875 282.382812 346.460938 286.511719 C 346.460938 286.511719 345.371094 294.777344 350.589844 295.648438 C 360.152344 279.335938 372.320312 259.980469 383.839844 242.148438 Z M 380.363281 246.714844 " fill-opacity="1" fill-rule="nonzero"/><path fill="#fbb616" d="M 389.707031 232.363281 L 381.234375 243.238281 C 376.886719 242.367188 352.980469 238.234375 352.328125 251.9375 C 352.328125 251.9375 351.675781 260.199219 362.324219 261.9375 C 362.324219 261.9375 346.894531 259.113281 348.851562 273.246094 C 348.851562 273.246094 350.371094 278.25 356.238281 277.378906 C 352.980469 278.46875 348.414062 278.902344 347.328125 283.035156 C 347.328125 283.035156 346.023438 290.644531 352.980469 291.515625 C 352.980469 291.515625 384.710938 291.515625 382.972656 253.675781 C 385.796875 252.152344 397.96875 244.542969 389.707031 232.363281 Z M 389.707031 232.363281 " fill-opacity="1" fill-rule="nonzero"/><path fill="#884a20" d="M 367.539062 262.375 C 366.453125 262.375 365.367188 262.375 364.28125 262.375 C 363.195312 262.375 362.105469 262.15625 361.019531 261.9375 C 362.105469 262.15625 363.195312 261.9375 364.28125 261.9375 C 365.367188 261.722656 366.453125 261.722656 367.539062 261.503906 Z M 367.539062 262.375 " fill-opacity="1" fill-rule="nonzero"/><path fill="#884a20" d="M 355.804688 277.597656 C 357.324219 277.597656 358.847656 277.378906 360.367188 276.945312 C 361.019531 276.726562 361.890625 276.511719 362.542969 276.292969 C 363.195312 276.074219 363.847656 275.640625 364.28125 275.207031 L 364.933594 276.074219 C 364.28125 276.726562 363.410156 276.945312 362.757812 277.164062 C 361.890625 277.378906 361.238281 277.378906 360.367188 277.597656 C 358.847656 277.597656 357.324219 277.597656 355.804688 277.597656 Z M 355.804688 277.597656 " fill-opacity="1" fill-rule="nonzero"/><path fill="#1e6b83" d="M 43.492188 253.242188 C 47.839844 252.371094 71.746094 248.238281 72.398438 261.9375 C 72.398438 261.9375 73.050781 270.203125 62.402344 271.941406 C 62.402344 271.941406 77.832031 269.117188 75.875 283.46875 C 75.875 283.46875 74.355469 288.472656 68.488281 287.601562 C 71.746094 288.6875 76.3125 289.125 77.398438 293.253906 C 77.398438 293.253906 80.007812 300.214844 71.964844 302.171875 C 62.402344 285.859375 51.535156 266.722656 40.015625 248.671875 Z M 43.492188 253.242188 " fill-opacity="1" fill-rule="nonzero"/><path fill="#fbb616" d="M 34.582031 238.234375 L 42.40625 249.761719 C 46.753906 248.890625 70.660156 244.757812 71.3125 258.460938 C 71.3125 258.460938 71.964844 266.722656 61.316406 268.464844 C 61.316406 268.464844 76.746094 265.636719 74.789062 279.773438 C 74.789062 279.773438 73.269531 284.773438 67.402344 283.6875 C 70.660156 284.992188 75.226562 285.207031 76.3125 289.339844 C 76.3125 289.339844 77.617188 298.257812 71.53125 298.472656 C 71.53125 298.472656 35.019531 294.125 36.757812 256.066406 C 34.148438 254.761719 29.585938 251.285156 34.582031 238.234375 Z M 34.582031 238.234375 " fill-opacity="1" fill-rule="nonzero"/><path fill="#7c411c" d="M 56.316406 267.59375 C 56.75 267.8125 57.1875 268.027344 57.621094 268.027344 C 58.054688 268.246094 58.707031 268.246094 59.140625 268.246094 C 60.226562 268.246094 61.316406 268.246094 62.183594 268.027344 L 62.183594 268.464844 C 61.097656 268.898438 60.011719 269.117188 58.925781 269.117188 C 58.273438 269.117188 57.835938 269.117188 57.1875 268.898438 C 56.535156 268.898438 56.097656 268.679688 55.445312 268.464844 Z M 56.316406 267.59375 " fill-opacity="1" fill-rule="nonzero"/><path fill="#7c411c" d="M 63.269531 282.597656 C 63.921875 282.816406 64.792969 283.25 65.445312 283.46875 C 65.878906 283.6875 66.097656 283.6875 66.53125 283.902344 C 66.964844 283.902344 67.402344 284.121094 67.617188 284.121094 C 67.183594 284.121094 66.75 284.121094 66.3125 284.121094 C 65.878906 284.121094 65.445312 284.121094 65.011719 284.121094 C 64.140625 284.121094 63.488281 283.902344 62.621094 283.902344 Z M 63.269531 282.597656 " fill-opacity="1" fill-rule="nonzero"/></svg>