<svg xmlns="http://www.w3.org/2000/svg" xmlns:xlink="http://www.w3.org/1999/xlink" width="566" zoomAndPan="magnify" viewBox="0 0 425.03998 425.249996" height="566" preserveAspectRatio="xMidYMid meet" version="1.0"><defs><filter x="0%" y="0%" width="100%" height="100%" id="20332ecf72"><feColorMatrix values="0 0 0 0 1 0 0 0 0 1 0 0 0 0 1 0 0 0 1 0" color-interpolation-filters="sRGB"/></filter><clipPath id="f40ea295d5"><path d="M 326 189 L 404.796875 189 L 404.796875 285 L 326 285 Z M 326 189 " clip-rule="nonzero"/></clipPath><clipPath id="4ed9b5c359"><path d="M 70 0.105469 L 343 0.105469 L 343 366 L 70 366 Z M 70 0.105469 " clip-rule="nonzero"/></clipPath><clipPath id="aad424d579"><path d="M 135.070312 94.40625 L 263.257812 94.40625 L 263.257812 222.597656 L 135.070312 222.597656 Z M 135.070312 94.40625 " clip-rule="nonzero"/></clipPath><clipPath id="cca55b2850"><path d="M 199.164062 94.40625 C 163.765625 94.40625 135.070312 123.105469 135.070312 158.503906 C 135.070312 193.902344 163.765625 222.597656 199.164062 222.597656 C 234.5625 222.597656 263.257812 193.902344 263.257812 158.503906 C 263.257812 123.105469 234.5625 94.40625 199.164062 94.40625 Z M 199.164062 94.40625 " clip-rule="nonzero"/></clipPath><clipPath id="7f184b2508"><path d="M 163.363281 122.703125 L 235.261719 122.703125 L 235.261719 194.601562 L 163.363281 194.601562 Z M 163.363281 122.703125 " clip-rule="nonzero"/></clipPath><mask id="d6ae2a2eda"><g filter="url(#20332ecf72)"><rect x="-42.503998" width="510.047976" fill="#000000" y="-42.525" height="510.299995" fill-opacity="0.55"/></g></mask><clipPath id="097fff4d9b"><path d="M 0.363281 0.703125 L 72 0.703125 L 72 72.546875 L 0.363281 72.546875 Z M 0.363281 0.703125 " clip-rule="nonzero"/></clipPath><clipPath id="b02405db4c"><rect x="0" width="73" y="0" height="73"/></clipPath></defs><path fill="#f1488c" d="M 215.949219 354.535156 C 215.246094 363.988281 215.421875 373.511719 216.46875 382.9375 C 217.042969 388.105469 217.886719 393.277344 219.570312 398.199219 C 221.253906 403.121094 223.820312 407.808594 227.503906 411.484375 C 232.132812 416.101562 238.308594 418.917969 244.648438 420.527344 C 250.984375 422.132812 257.546875 422.628906 264.058594 423.195312 C 270.4375 423.761719 276.917969 424.378906 283.195312 423.125 C 286.332031 422.496094 289.398438 421.382812 292.085938 419.644531 C 294.777344 417.910156 297.082031 415.527344 298.523438 412.671875 C 300.683594 408.394531 300.773438 403.226562 299.230469 398.691406 C 297.695312 394.152344 294.613281 390.230469 290.878906 387.230469 C 284.230469 381.898438 275.660156 379.441406 267.164062 378.726562 C 265.03125 378.546875 262.886719 378.464844 260.78125 378.101562 C 258.675781 377.734375 256.578125 377.0625 254.847656 375.804688 C 253.242188 374.640625 252.011719 373.011719 251.125 371.234375 C 250.25 369.460938 249.699219 367.527344 249.308594 365.585938 C 248.0625 359.4375 248.320312 352.996094 250.042969 346.964844 L 227.480469 350.398438 L 215.949219 354.535156 " fill-opacity="1" fill-rule="nonzero"/><path fill="#ee2371" d="M 250.042969 346.960938 L 227.476562 350.394531 L 215.945312 354.535156 C 215.246094 363.988281 215.417969 373.515625 216.464844 382.9375 C 217.039062 388.109375 217.886719 393.277344 219.570312 398.199219 C 221.253906 403.121094 223.820312 407.804688 227.503906 411.480469 C 232.132812 416.101562 238.308594 418.917969 244.648438 420.527344 C 250.984375 422.132812 257.542969 422.628906 264.054688 423.195312 C 270.433594 423.761719 276.917969 424.375 283.199219 423.125 C 286.332031 422.496094 289.398438 421.382812 292.089844 419.644531 C 294.777344 417.914062 297.082031 415.53125 298.523438 412.675781 C 300.683594 408.394531 300.773438 403.230469 299.230469 398.691406 C 299.199219 398.570312 299.125 398.46875 299.078125 398.351562 C 299.042969 399.46875 298.921875 400.582031 298.632812 401.65625 C 297.894531 404.421875 296.328125 406.957031 294.1875 408.855469 C 292.207031 410.617188 289.773438 411.816406 287.253906 412.640625 C 284.734375 413.46875 282.105469 413.941406 279.496094 414.390625 C 271.609375 415.746094 263.578125 416.941406 255.636719 415.964844 C 249.527344 415.222656 243.515625 413.140625 238.574219 409.488281 C 233.753906 405.925781 230.0625 400.953125 227.644531 395.476562 C 225.21875 389.992188 224.03125 384.023438 223.71875 378.039062 C 223.660156 377 223.636719 375.957031 223.773438 374.925781 C 223.914062 373.898438 224.234375 372.882812 224.820312 372.03125 C 225.386719 371.207031 226.179688 370.566406 227.070312 370.117188 C 227.953125 369.667969 228.9375 369.40625 229.921875 369.265625 C 231.890625 368.984375 233.890625 369.183594 235.878906 369.183594 C 240.554688 369.183594 245.214844 368.097656 249.414062 366.042969 C 249.378906 365.894531 249.332031 365.746094 249.296875 365.589844 C 248.054688 359.445312 248.3125 352.996094 250.035156 346.964844 L 250.042969 346.960938 " fill-opacity="1" fill-rule="nonzero"/><path fill="#f1488c" d="M 199.566406 356.945312 C 199.519531 366.429688 198.597656 375.90625 196.8125 385.214844 C 195.828125 390.328125 194.585938 395.417969 192.515625 400.1875 C 190.445312 404.964844 187.519531 409.433594 183.5625 412.808594 C 178.585938 417.042969 172.203125 419.363281 165.753906 420.46875 C 159.308594 421.570312 152.734375 421.546875 146.195312 421.597656 C 139.792969 421.65625 133.28125 421.765625 127.121094 420.011719 C 124.046875 419.136719 121.078125 417.789062 118.535156 415.847656 C 115.996094 413.902344 113.882812 411.347656 112.667969 408.382812 C 110.851562 403.949219 111.167969 398.789062 113.058594 394.390625 C 114.953125 389.988281 118.335938 386.320312 122.292969 383.625 C 129.335938 378.828125 138.078125 377.058594 146.601562 377.019531 C 148.742188 377.007812 150.886719 377.089844 153.015625 376.898438 C 155.144531 376.695312 157.285156 376.195312 159.109375 375.074219 C 160.800781 374.039062 162.160156 372.515625 163.183594 370.8125 C 164.199219 369.113281 164.898438 367.234375 165.441406 365.324219 C 167.164062 359.296875 167.417969 352.851562 166.175781 346.703125 L 188.402344 351.910156 L 199.566406 356.945312 " fill-opacity="1" fill-rule="nonzero"/><path fill="#ee2371" d="M 166.8125 351.238281 C 167.199219 355.964844 166.742188 360.769531 165.441406 365.328125 C 165.269531 365.921875 165.050781 366.496094 164.847656 367.078125 C 167.644531 368.054688 170.535156 368.769531 173.472656 369.15625 C 175.613281 369.441406 177.777344 369.5625 179.894531 369.957031 C 182.019531 370.34375 184.132812 371.027344 185.878906 372.289062 C 188.183594 373.960938 189.707031 376.625 190.121094 379.441406 C 190.667969 383.179688 189.339844 386.953125 187.554688 390.277344 C 182.929688 398.878906 175.148438 405.550781 166.359375 409.796875 C 155.9375 414.832031 143.839844 416.605469 132.546875 414.066406 C 126.3125 412.671875 120.28125 409.921875 115.640625 405.53125 C 114.074219 404.050781 112.738281 402.351562 111.542969 400.554688 C 111.328125 403.21875 111.644531 405.910156 112.667969 408.382812 C 113.882812 411.347656 115.996094 413.902344 118.535156 415.839844 C 121.078125 417.789062 124.046875 419.136719 127.121094 420.011719 C 133.28125 421.765625 139.792969 421.660156 146.195312 421.601562 C 152.734375 421.550781 159.308594 421.5625 165.753906 420.46875 C 172.203125 419.363281 178.585938 417.050781 183.566406 412.808594 C 187.519531 409.433594 190.445312 404.964844 192.519531 400.191406 C 194.589844 395.417969 195.828125 390.328125 196.808594 385.214844 C 198.402344 376.90625 199.269531 368.460938 199.480469 360 L 166.8125 351.238281 " fill-opacity="1" fill-rule="nonzero"/><g clip-path="url(#f40ea295d5)"><path fill="#f1488c" d="M 326.566406 189.125 C 342.089844 192.4375 356.988281 198.652344 370.261719 207.351562 C 379.597656 213.46875 388.222656 220.902344 394.550781 230.09375 C 400.886719 239.289062 404.820312 250.355469 404.382812 261.507812 C 404.21875 265.777344 403.398438 270.066406 401.5 273.894531 C 399.597656 277.71875 396.554688 281.050781 392.671875 282.835938 C 389.871094 284.125 386.703125 284.5625 383.636719 284.277344 C 380.566406 283.984375 377.585938 282.949219 374.902344 281.425781 C 369.535156 278.375 365.449219 273.453125 362.28125 268.152344 C 356.714844 258.867188 353.480469 247.992188 345.941406 240.230469 C 340.894531 235.03125 334.09375 231.570312 326.925781 230.554688 L 326.566406 189.125 " fill-opacity="1" fill-rule="nonzero"/><path fill="#ee2371" d="M 326.566406 189.121094 L 326.925781 230.554688 C 334.09375 231.574219 340.894531 235.035156 345.941406 240.230469 C 353.484375 247.996094 356.710938 258.863281 362.28125 268.152344 C 365.449219 273.449219 369.539062 278.375 374.902344 281.421875 C 377.589844 282.949219 380.566406 283.984375 383.636719 284.28125 C 386.703125 284.5625 389.871094 284.125 392.671875 282.835938 C 396.554688 281.050781 399.601562 277.71875 401.503906 273.894531 C 403.324219 270.226562 404.132812 266.125 404.34375 262.03125 C 402.75 264.664062 400.746094 267.046875 398.386719 269.019531 C 395.289062 271.605469 391.601562 273.519531 387.65625 274.382812 C 385.851562 274.777344 383.988281 274.960938 382.148438 274.773438 C 380.308594 274.589844 378.492188 274.03125 376.929688 273.046875 C 374.601562 271.574219 372.957031 269.230469 371.726562 266.765625 C 370.492188 264.304688 369.617188 261.675781 368.441406 259.1875 C 365.148438 252.183594 359.628906 246.429688 356.148438 239.515625 C 354.046875 235.328125 352.71875 230.757812 352.128906 226.105469 C 351.578125 221.734375 351.667969 217.316406 351.457031 212.917969 C 351.199219 207.285156 350.394531 201.683594 349.160156 196.179688 C 341.863281 193.144531 334.296875 190.769531 326.566406 189.121094 " fill-opacity="1" fill-rule="nonzero"/></g><path fill="#f03983" d="M 77.304688 206.191406 C 63.363281 213.78125 50.84375 223.972656 40.585938 236.089844 C 33.375 244.605469 27.21875 254.183594 23.761719 264.796875 C 20.296875 275.410156 19.664062 287.140625 23.25 297.710938 C 24.628906 301.753906 26.625 305.636719 29.535156 308.765625 C 32.445312 311.890625 36.3125 314.21875 40.539062 314.828125 C 43.59375 315.265625 46.75 314.796875 49.609375 313.648438 C 52.472656 312.488281 55.039062 310.652344 57.175781 308.429688 C 61.457031 303.980469 63.976562 298.097656 65.511719 292.117188 C 68.207031 281.632812 68.21875 270.289062 73.246094 260.699219 C 76.609375 254.28125 82.144531 249.03125 88.730469 246.015625 L 77.304688 206.191406 " fill-opacity="1" fill-rule="nonzero"/><path fill="#ee2371" d="M 77.308594 206.191406 C 71.269531 209.484375 65.515625 213.285156 60.078125 217.492188 C 59.929688 223.339844 60.183594 229.203125 60.964844 235 C 61.902344 241.933594 63.511719 248.921875 62.550781 255.859375 C 61.542969 263.101562 57.8125 269.660156 55.910156 276.71875 C 55.210938 279.3125 54.761719 281.96875 53.984375 284.539062 C 53.210938 287.109375 52.082031 289.636719 50.226562 291.578125 C 48.199219 293.691406 45.402344 294.984375 42.515625 295.480469 C 39.628906 295.976562 36.648438 295.71875 33.792969 295.058594 C 29.230469 294 24.929688 291.871094 21.269531 288.949219 C 21.648438 291.921875 22.289062 294.863281 23.257812 297.710938 C 24.628906 301.753906 26.625 305.636719 29.535156 308.765625 C 32.445312 311.894531 36.3125 314.222656 40.539062 314.828125 C 43.59375 315.273438 46.753906 314.796875 49.609375 313.644531 C 52.476562 312.484375 55.035156 310.648438 57.175781 308.425781 C 61.453125 303.976562 63.976562 298.101562 65.507812 292.121094 C 68.203125 281.632812 68.21875 270.289062 73.246094 260.699219 C 76.605469 254.28125 82.144531 249.03125 88.730469 246.015625 L 77.308594 206.191406 " fill-opacity="1" fill-rule="nonzero"/><g clip-path="url(#4ed9b5c359)"><path fill="#f1488c" d="M 70.542969 219.636719 C 71.652344 189.238281 78.152344 158.953125 90.480469 131.144531 C 100.726562 108.023438 115.347656 86.296875 135.703125 71.300781 C 144.527344 64.800781 154.335938 59.640625 164.695312 56.054688 C 159.152344 53.980469 154.308594 50.089844 151.089844 45.125 C 149.933594 43.34375 148.96875 41.378906 148.726562 39.269531 C 148.605469 38.214844 148.671875 37.136719 148.984375 36.121094 C 149.289062 35.101562 149.835938 34.152344 150.609375 33.425781 C 151.316406 32.753906 152.195312 32.285156 153.125 32.003906 C 154.054688 31.726562 155.03125 31.628906 156.003906 31.671875 C 157.945312 31.742188 159.828125 32.332031 161.679688 32.914062 C 166.089844 34.292969 170.5 35.664062 174.914062 37.027344 C 170.164062 34.148438 166.523438 29.496094 164.863281 24.195312 C 164.523438 23.109375 164.257812 21.980469 164.253906 20.839844 C 164.242188 19.699219 164.488281 18.53125 165.125 17.578125 C 165.71875 16.667969 166.632812 15.984375 167.648438 15.59375 C 168.660156 15.203125 169.769531 15.09375 170.855469 15.210938 C 173.015625 15.441406 175 16.503906 176.800781 17.722656 C 181.277344 20.742188 185.039062 24.816406 187.699219 29.519531 C 186.945312 24.394531 186.726562 19.191406 187.050781 14.019531 C 187.199219 11.660156 187.460938 9.28125 188.285156 7.066406 C 189.113281 4.851562 190.546875 2.792969 192.59375 1.609375 C 194.015625 0.78125 195.683594 0.414062 197.328125 0.484375 C 198.96875 0.554688 200.582031 1.054688 202.019531 1.851562 C 204.894531 3.453125 207 6.199219 208.390625 9.179688 C 211.535156 15.90625 211.210938 24.15625 207.546875 30.617188 C 211.152344 26.210938 215.609375 22.503906 220.601562 19.761719 C 222.234375 18.871094 223.960938 18.070312 225.808594 17.824219 C 226.734375 17.722656 227.679688 17.734375 228.585938 17.957031 C 229.492188 18.179688 230.351562 18.605469 231.042969 19.230469 C 232.0625 20.15625 232.671875 21.492188 232.828125 22.859375 C 232.980469 24.230469 232.703125 25.628906 232.171875 26.894531 C 231.089844 29.433594 229.03125 31.402344 227.015625 33.28125 C 225.21875 34.953125 223.414062 36.621094 221.609375 38.277344 C 225.367188 35.574219 229.9375 34.027344 234.566406 33.894531 C 236.238281 33.847656 237.9375 33.988281 239.5 34.570312 C 241.0625 35.15625 242.488281 36.226562 243.257812 37.710938 C 243.878906 38.914062 244.042969 40.335938 243.808594 41.675781 C 243.574219 43.011719 242.976562 44.273438 242.164062 45.359375 C 240.539062 47.535156 238.164062 49.007812 235.8125 50.367188 C 232.128906 52.492188 228.359375 54.472656 224.519531 56.304688 C 248.269531 61.921875 270.382812 74.289062 287.601562 91.589844 C 311.753906 115.863281 325.5625 148.671875 334.039062 181.851562 C 339.574219 203.5 343.09375 225.859375 341.792969 248.171875 C 340.496094 270.476562 334.167969 292.8125 321.363281 311.121094 C 309.109375 328.632812 291.371094 341.851562 272.003906 350.890625 C 243.09375 364.382812 210.085938 368.902344 178.609375 363.710938 C 151.4375 359.230469 125.082031 347.289062 105.875 327.546875 C 90.445312 311.679688 80.066406 291.230469 74.886719 269.699219 C 70.957031 253.367188 69.933594 236.429688 70.550781 219.636719 L 70.542969 219.636719 " fill-opacity="1" fill-rule="nonzero"/></g><path fill="#ffffff" d="M 133.824219 141.316406 C 124.125 177.742188 145.785156 215.136719 182.199219 224.832031 C 199.691406 229.492188 218.308594 227.011719 233.96875 217.929688 C 249.625 208.855469 261.039062 193.933594 265.691406 176.441406 C 270.351562 158.949219 267.867188 140.320312 258.796875 124.660156 C 249.726562 108.996094 234.804688 97.582031 217.316406 92.925781 C 199.824219 88.265625 181.207031 90.75 165.546875 99.824219 C 149.890625 108.902344 138.480469 123.828125 133.824219 141.316406 " fill-opacity="1" fill-rule="nonzero"/><path fill="#f1488c" d="M 151.515625 146.03125 C 144.421875 172.683594 160.269531 200.035156 186.914062 207.136719 C 199.707031 210.542969 213.328125 208.722656 224.789062 202.085938 C 236.242188 195.445312 244.589844 184.523438 248 171.726562 C 255.09375 145.074219 239.246094 117.71875 212.601562 110.625 C 185.957031 103.527344 158.609375 119.378906 151.515625 146.03125 " fill-opacity="1" fill-rule="nonzero"/><path fill="#4f4c4c" d="M 163.34375 149.179688 C 160.773438 158.839844 162.144531 169.125 167.15625 177.777344 C 172.164062 186.425781 180.40625 192.730469 190.0625 195.300781 C 210.171875 200.65625 230.816406 188.691406 236.167969 168.574219 C 241.523438 148.460938 229.5625 127.8125 209.453125 122.457031 C 199.796875 119.882812 189.511719 121.253906 180.867188 126.265625 C 172.21875 131.277344 165.917969 139.523438 163.34375 149.179688 " fill-opacity="1" fill-rule="nonzero"/><path fill="#ffffff" d="M 171.96875 130.671875 C 169.683594 139.257812 174.792969 148.078125 183.378906 150.363281 C 191.964844 152.648438 200.78125 147.539062 203.066406 138.953125 C 205.351562 130.363281 200.246094 121.546875 191.660156 119.257812 C 187.53125 118.160156 183.144531 118.746094 179.453125 120.882812 C 175.757812 123.023438 173.066406 126.542969 171.96875 130.671875 " fill-opacity="1" fill-rule="nonzero"/><path fill="#ececec" d="M 193.195312 119.765625 C 194.242188 120.71875 195.167969 121.8125 195.863281 123.046875 C 197.390625 125.761719 197.90625 129.03125 197.296875 132.089844 C 196.554688 135.800781 194.195312 139.089844 191.101562 141.261719 C 188.003906 143.4375 184.222656 144.542969 180.441406 144.726562 C 178.4375 144.824219 176.433594 144.597656 174.46875 144.203125 C 176.636719 147.226562 179.785156 149.398438 183.378906 150.359375 C 191.964844 152.644531 200.777344 147.535156 203.066406 138.953125 C 205.179688 130.972656 200.917969 122.6875 193.191406 119.765625 L 193.195312 119.765625 " fill-opacity="1" fill-rule="nonzero"/><path fill="#454243" d="M 217.472656 125.664062 C 222.875 131.414062 226.460938 138.886719 227.296875 146.742188 C 227.953125 152.960938 226.96875 159.351562 224.433594 165.070312 C 221.894531 170.78125 217.804688 175.808594 212.707031 179.421875 C 204.453125 185.277344 193.546875 187.226562 183.777344 184.609375 C 175.632812 182.425781 168.441406 177.082031 163.8125 170.046875 C 167.644531 182.417969 177.554688 191.953125 190.058594 195.300781 C 199.71875 197.878906 210.003906 196.507812 218.648438 191.5 C 227.296875 186.484375 233.601562 178.242188 236.175781 168.582031 C 240.65625 151.664062 232.910156 133.890625 217.472656 125.664062 " fill-opacity="1" fill-rule="nonzero"/><path fill="#ef2c77" d="M 222.976562 114.746094 C 231.046875 122.171875 236.988281 131.921875 239.71875 142.554688 C 241.921875 151.128906 242.085938 160.269531 239.8125 168.828125 C 237.535156 177.382812 232.78125 185.316406 226.070312 191.085938 C 218.625 197.476562 208.90625 201.0625 199.105469 201.402344 C 189.300781 201.742188 179.46875 198.898438 171.148438 193.703125 C 162.574219 188.347656 155.796875 180.390625 151.429688 171.28125 C 155.910156 188.769531 169.480469 202.476562 186.921875 207.132812 C 213.5625 214.222656 240.90625 198.375 248 171.730469 C 253.960938 149.226562 243.582031 125.585938 222.980469 114.746094 L 222.976562 114.746094 " fill-opacity="1" fill-rule="nonzero"/><path fill="#ececec" d="M 236.246094 101.300781 C 244.121094 108.992188 250.394531 118.328125 254.210938 128.65625 C 260.253906 145.011719 260.230469 163.769531 252.976562 179.628906 C 247.019531 192.671875 236.308594 203.4375 223.414062 209.714844 C 210.519531 215.992188 195.539062 217.785156 181.476562 214.980469 C 162.503906 211.191406 145.386719 198.914062 135.714844 182.152344 C 135.613281 181.953125 135.515625 181.738281 135.40625 181.535156 C 142.886719 202.816406 160.40625 219.027344 182.195312 224.835938 C 199.691406 229.496094 218.308594 227.015625 233.96875 217.9375 C 249.625 208.863281 261.039062 193.9375 265.695312 176.445312 C 273.324219 147.652344 261.402344 117.238281 236.246094 101.300781 " fill-opacity="1" fill-rule="nonzero"/><path fill="#ffffff" d="M 230.871094 275.777344 C 233.683594 278.863281 236.5 281.945312 239.3125 285.027344 C 240 285.777344 240.691406 286.527344 241.464844 287.175781 C 242.242188 287.832031 243.121094 288.382812 244.089844 288.683594 C 244.699219 288.867188 245.351562 288.953125 245.960938 288.789062 C 246.457031 288.660156 246.902344 288.375 247.253906 288.003906 C 247.605469 287.636719 247.867188 287.183594 248.046875 286.707031 C 248.402344 285.75 248.445312 284.707031 248.449219 283.6875 C 248.46875 280.675781 248.269531 277.671875 248.046875 274.671875 C 247.871094 272.285156 247.675781 269.898438 247.472656 267.511719 C 243.839844 269.1875 240.234375 270.933594 236.671875 272.742188 C 234.726562 273.730469 232.792969 274.738281 230.867188 275.769531 L 230.871094 275.777344 " fill-opacity="1" fill-rule="nonzero"/><path fill="#ececec" d="M 247.671875 269.925781 L 242.1875 272.261719 C 243.648438 274.761719 243.988281 277.894531 243.082031 280.644531 C 242.460938 282.53125 241.222656 284.152344 239.679688 285.390625 C 240.253906 286.011719 240.820312 286.636719 241.464844 287.175781 C 242.242188 287.832031 243.121094 288.382812 244.089844 288.683594 C 244.695312 288.867188 245.351562 288.953125 245.960938 288.796875 C 246.457031 288.667969 246.902344 288.382812 247.253906 288.015625 C 247.605469 287.644531 247.867188 287.195312 248.042969 286.714844 C 248.402344 285.757812 248.441406 284.71875 248.449219 283.695312 C 248.480469 280.6875 248.273438 277.679688 248.050781 274.679688 C 247.925781 273.09375 247.800781 271.511719 247.671875 269.933594 L 247.671875 269.925781 " fill-opacity="1" fill-rule="nonzero"/><path fill="#231f20" d="M 273.496094 233.050781 C 272.550781 233.089844 271.710938 233.6875 271.371094 234.578125 C 266.574219 246.515625 258.429688 257.148438 248.175781 264.925781 C 237.925781 272.703125 225.527344 277.648438 212.738281 279.046875 C 200.765625 280.359375 188.429688 278.570312 177.320312 273.921875 C 166.207031 269.273438 156.292969 261.75 148.816406 252.304688 C 148.4375 251.769531 147.859375 251.417969 147.214844 251.320312 C 146.570312 251.226562 145.914062 251.40625 145.402344 251.808594 C 144.886719 252.214844 144.570312 252.808594 144.507812 253.460938 C 144.449219 254.109375 144.660156 254.753906 145.09375 255.246094 C 153.078125 265.328125 163.644531 273.347656 175.511719 278.308594 C 187.375 283.273438 200.484375 285.15625 213.269531 283.753906 C 226.925781 282.257812 240.128906 277.023438 251.078125 268.714844 C 262.027344 260.410156 270.636719 249.101562 275.761719 236.347656 C 276.078125 235.601562 275.988281 234.746094 275.53125 234.082031 C 275.074219 233.414062 274.308594 233.027344 273.496094 233.050781 " fill-opacity="1" fill-rule="nonzero"/><path fill="#231f20" d="M 151.199219 243.96875 C 150.488281 243.992188 149.871094 244.476562 149.683594 245.160156 C 148.976562 247.585938 147.535156 249.816406 145.617188 251.457031 C 143.511719 253.253906 140.804688 254.359375 138.046875 254.554688 C 137.132812 254.609375 136.441406 255.394531 136.503906 256.300781 C 136.5625 257.210938 137.351562 257.894531 138.261719 257.828125 C 141.730469 257.582031 145.089844 256.207031 147.734375 253.953125 C 150.148438 251.886719 151.921875 249.117188 152.8125 246.066406 C 153.128906 245.003906 152.3125 243.9375 151.199219 243.96875 " fill-opacity="1" fill-rule="nonzero"/><path fill="#ef2c77" d="M 257.089844 68.832031 C 273.242188 83.160156 286.390625 100.878906 295.292969 120.554688 C 306.539062 145.402344 311.019531 173.277344 308.109375 200.398438 C 305.625 223.546875 297.785156 246.132812 285.164062 265.695312 C 272.546875 285.25 255.152344 301.734375 234.816406 313.050781 C 203.652344 330.386719 165.6875 335.085938 131.246094 325.851562 C 116.632812 321.9375 102.738281 315.507812 90.164062 307.09375 C 94.636719 314.464844 99.863281 321.363281 105.875 327.550781 C 125.082031 347.292969 151.4375 359.230469 178.609375 363.710938 C 210.085938 368.902344 243.09375 364.382812 272.003906 350.890625 C 291.367188 341.851562 309.109375 328.632812 321.363281 311.121094 C 334.167969 292.8125 340.496094 270.476562 341.792969 248.171875 C 343.09375 225.859375 339.574219 203.5 334.039062 181.847656 C 325.558594 148.671875 311.753906 115.867188 287.601562 91.59375 C 278.617188 82.566406 268.28125 74.914062 257.089844 68.832031 " fill-opacity="1" fill-rule="nonzero"/><path fill="#f795c1" d="M 122.871094 94.804688 C 128.117188 88.804688 133.847656 83.191406 140.257812 78.449219 C 145.546875 74.542969 151.277344 71.238281 157.296875 68.59375 C 160.710938 67.089844 164.324219 65.773438 168.054688 65.84375 C 169.730469 65.875 171.417969 66.199219 172.914062 66.957031 C 174.40625 67.710938 175.695312 68.925781 176.382812 70.449219 C 177.121094 72.09375 177.125 74.007812 176.644531 75.746094 C 176.164062 77.488281 175.234375 79.070312 174.160156 80.515625 C 170.261719 85.785156 164.578125 89.382812 159.261719 93.210938 C 149.988281 99.882812 141.394531 107.6875 134.921875 117.101562 C 133.609375 119.015625 132.378906 120.992188 130.9375 122.808594 C 129.496094 124.625 127.808594 126.296875 125.769531 127.410156 C 123.53125 128.644531 120.875 129.152344 118.355469 128.707031 C 115.835938 128.257812 113.484375 126.824219 112.042969 124.707031 C 110.980469 123.148438 110.425781 121.277344 110.304688 119.390625 C 110.179688 117.503906 110.464844 115.613281 110.960938 113.789062 C 112.078125 109.707031 114.242188 105.988281 116.695312 102.539062 C 118.601562 99.847656 120.699219 97.292969 122.867188 94.804688 L 122.871094 94.804688 " fill-opacity="1" fill-rule="nonzero"/><path fill="#f795c1" d="M 27.226562 268.085938 C 28.195312 264.472656 29.445312 260.917969 31.160156 257.59375 C 32.578125 254.851562 34.304688 252.273438 36.289062 249.90625 C 37.417969 248.566406 38.664062 247.265625 40.253906 246.523438 C 40.964844 246.1875 41.742188 245.972656 42.527344 245.980469 C 43.3125 245.988281 44.109375 246.230469 44.714844 246.734375 C 45.367188 247.273438 45.765625 248.078125 45.925781 248.910156 C 46.082031 249.738281 46.015625 250.601562 45.867188 251.433594 C 45.316406 254.460938 43.667969 257.152344 42.21875 259.867188 C 39.699219 264.601562 37.699219 269.671875 36.925781 274.976562 C 36.769531 276.054688 36.660156 277.140625 36.429688 278.210938 C 36.199219 279.273438 35.835938 280.324219 35.210938 281.214844 C 34.519531 282.199219 33.507812 282.96875 32.355469 283.300781 C 31.199219 283.632812 29.910156 283.519531 28.863281 282.925781 C 28.097656 282.488281 27.476562 281.816406 27.03125 281.046875 C 26.585938 280.277344 26.316406 279.421875 26.148438 278.550781 C 25.769531 276.601562 25.910156 274.582031 26.226562 272.625 C 26.476562 271.097656 26.828125 269.585938 27.226562 268.085938 " fill-opacity="1" fill-rule="nonzero"/><path fill="#f795c1" d="M 396.710938 241.699219 C 395.246094 238.257812 393.511719 234.914062 391.347656 231.859375 C 389.558594 229.347656 387.484375 227.035156 385.1875 224.972656 C 383.886719 223.800781 382.464844 222.6875 380.789062 222.171875 C 380.039062 221.941406 379.238281 221.839844 378.460938 221.957031 C 377.6875 222.078125 376.933594 222.429688 376.402344 223.007812 C 375.832031 223.636719 375.550781 224.488281 375.511719 225.332031 C 375.46875 226.179688 375.65625 227.019531 375.921875 227.824219 C 376.890625 230.742188 378.902344 233.179688 380.714844 235.664062 C 383.875 239.996094 386.5625 244.734375 388.074219 249.882812 C 388.382812 250.925781 388.640625 251.988281 389.019531 253.007812 C 389.394531 254.03125 389.902344 255.023438 390.648438 255.816406 C 391.472656 256.695312 392.578125 257.308594 393.769531 257.480469 C 394.957031 257.648438 396.214844 257.355469 397.167969 256.621094 C 397.871094 256.082031 398.390625 255.324219 398.722656 254.5 C 399.050781 253.679688 399.199219 252.792969 399.246094 251.910156 C 399.34375 249.925781 398.921875 247.949219 398.335938 246.050781 C 397.878906 244.574219 397.316406 243.128906 396.710938 241.699219 " fill-opacity="1" fill-rule="nonzero"/><path fill="#f795c1" d="M 120.167969 390.230469 C 122.179688 387.347656 124.976562 385.019531 128.179688 383.574219 C 130.019531 382.746094 131.984375 382.203125 133.972656 381.84375 C 134.765625 381.699219 135.574219 381.582031 136.382812 381.640625 C 137.1875 381.699219 138 381.9375 138.632812 382.445312 C 139.164062 382.871094 139.546875 383.472656 139.722656 384.128906 C 139.890625 384.785156 139.847656 385.496094 139.613281 386.128906 C 139.238281 387.140625 138.402344 387.914062 137.476562 388.449219 C 136.546875 388.988281 135.511719 389.308594 134.5 389.667969 C 131.683594 390.667969 128.871094 392.015625 126.980469 394.332031 C 126.277344 395.1875 125.710938 396.167969 124.875 396.886719 C 124.109375 397.542969 123.121094 397.945312 122.117188 397.945312 C 121.113281 397.941406 120.097656 397.511719 119.457031 396.738281 C 118.949219 396.125 118.691406 395.324219 118.652344 394.527344 C 118.617188 393.730469 118.789062 392.933594 119.078125 392.1875 C 119.351562 391.488281 119.71875 390.828125 120.171875 390.230469 L 120.167969 390.230469 " fill-opacity="1" fill-rule="nonzero"/><path fill="#f795c1" d="M 292.253906 392.246094 C 290.253906 389.359375 287.453125 387.03125 284.25 385.585938 C 282.410156 384.757812 280.445312 384.210938 278.457031 383.855469 C 277.660156 383.710938 276.851562 383.597656 276.046875 383.652344 C 275.238281 383.710938 274.425781 383.953125 273.792969 384.457031 C 273.265625 384.882812 272.882812 385.480469 272.707031 386.140625 C 272.539062 386.796875 272.578125 387.507812 272.816406 388.144531 C 273.191406 389.148438 274.027344 389.925781 274.953125 390.460938 C 275.882812 390.996094 276.914062 391.320312 277.929688 391.679688 C 280.742188 392.675781 283.558594 394.027344 285.445312 396.34375 C 286.148438 397.203125 286.710938 398.183594 287.554688 398.902344 C 288.320312 399.554688 289.308594 399.960938 290.3125 399.957031 C 291.316406 399.957031 292.324219 399.523438 292.96875 398.75 C 293.476562 398.136719 293.738281 397.335938 293.78125 396.539062 C 293.8125 395.742188 293.640625 394.945312 293.351562 394.203125 C 293.078125 393.5 292.710938 392.835938 292.253906 392.246094 " fill-opacity="1" fill-rule="nonzero"/><path fill="#f795c1" d="M 190.140625 14.554688 C 190.066406 13.246094 190.042969 11.933594 190.210938 10.644531 C 190.425781 9.097656 190.945312 7.5625 191.953125 6.375 C 192.261719 6.007812 192.621094 5.671875 193.035156 5.433594 C 193.449219 5.183594 193.917969 5.03125 194.402344 5.03125 C 194.933594 5.027344 195.457031 5.21875 195.890625 5.519531 C 196.324219 5.824219 196.675781 6.242188 196.933594 6.707031 C 197.449219 7.632812 197.609375 8.714844 197.71875 9.769531 C 198.007812 12.582031 197.972656 15.492188 197.007812 18.148438 C 196.796875 18.730469 196.535156 19.300781 196.167969 19.796875 C 195.796875 20.289062 195.300781 20.710938 194.71875 20.914062 C 194.152344 21.113281 193.515625 21.101562 192.945312 20.914062 C 192.371094 20.722656 191.859375 20.355469 191.480469 19.886719 C 190.8125 19.074219 190.535156 18.007812 190.371094 16.964844 C 190.25 16.167969 190.183594 15.359375 190.136719 14.550781 L 190.140625 14.554688 " fill-opacity="1" fill-rule="nonzero"/><path fill="#f795c1" d="M 167.664062 26.195312 C 167.160156 25.285156 166.726562 24.324219 166.429688 23.328125 C 166.1875 22.5 166.039062 21.648438 165.980469 20.789062 C 165.953125 20.300781 165.953125 19.796875 166.128906 19.34375 C 166.207031 19.136719 166.320312 18.941406 166.480469 18.796875 C 166.640625 18.644531 166.847656 18.539062 167.066406 18.523438 C 167.304688 18.507812 167.539062 18.589844 167.730469 18.730469 C 167.917969 18.867188 168.078125 19.050781 168.203125 19.246094 C 168.679688 19.960938 168.867188 20.820312 169.097656 21.648438 C 169.5 23.085938 170.078125 24.496094 170.941406 25.714844 C 171.117188 25.960938 171.304688 26.203125 171.464844 26.460938 C 171.625 26.71875 171.753906 27.003906 171.800781 27.300781 C 171.851562 27.632812 171.792969 27.984375 171.628906 28.273438 C 171.457031 28.5625 171.175781 28.785156 170.855469 28.867188 C 170.609375 28.929688 170.359375 28.914062 170.117188 28.847656 C 169.882812 28.773438 169.664062 28.65625 169.460938 28.511719 C 169.011719 28.195312 168.652344 27.761719 168.335938 27.304688 C 168.089844 26.949219 167.871094 26.578125 167.664062 26.195312 " fill-opacity="1" fill-rule="nonzero"/><g clip-path="url(#aad424d579)"><g clip-path="url(#cca55b2850)"><path fill="#1e77ad" d="M 135.070312 94.40625 L 263.257812 94.40625 L 263.257812 222.597656 L 135.070312 222.597656 Z M 135.070312 94.40625 " fill-opacity="1" fill-rule="nonzero"/></g></g><g clip-path="url(#7f184b2508)"><g mask="url(#d6ae2a2eda)"><g transform="matrix(1, 0, 0, 1, 163, 122)"><g clip-path="url(#b02405db4c)"><g clip-path="url(#097fff4d9b)"><path fill="#0e0f1a" d="M 71.953125 36.5 C 71.957031 37.671875 71.898438 38.839844 71.78125 40.007812 C 71.667969 41.171875 71.496094 42.332031 71.265625 43.480469 C 71.039062 44.632812 70.753906 45.765625 70.414062 46.890625 C 70.074219 48.011719 69.679688 49.113281 69.230469 50.195312 C 68.78125 51.28125 68.28125 52.339844 67.726562 53.371094 C 67.175781 54.40625 66.574219 55.410156 65.921875 56.386719 C 65.269531 57.359375 64.574219 58.300781 63.828125 59.207031 C 63.085938 60.113281 62.300781 60.980469 61.472656 61.808594 C 60.640625 62.636719 59.773438 63.425781 58.867188 64.167969 C 57.960938 64.914062 57.019531 65.609375 56.046875 66.261719 C 55.070312 66.914062 54.066406 67.515625 53.035156 68.066406 C 52 68.621094 50.941406 69.121094 49.859375 69.570312 C 48.773438 70.019531 47.671875 70.414062 46.550781 70.753906 C 45.429688 71.09375 44.292969 71.378906 43.144531 71.605469 C 41.992188 71.835938 40.835938 72.007812 39.667969 72.121094 C 38.5 72.238281 37.332031 72.292969 36.160156 72.292969 C 34.988281 72.292969 33.816406 72.238281 32.652344 72.121094 C 31.484375 72.007812 30.324219 71.835938 29.175781 71.605469 C 28.027344 71.378906 26.890625 71.09375 25.769531 70.753906 C 24.644531 70.414062 23.542969 70.019531 22.460938 69.570312 C 21.378906 69.121094 20.320312 68.621094 19.285156 68.066406 C 18.25 67.515625 17.246094 66.914062 16.273438 66.261719 C 15.296875 65.609375 14.355469 64.914062 13.449219 64.167969 C 12.542969 63.425781 11.675781 62.636719 10.847656 61.808594 C 10.019531 60.980469 9.234375 60.113281 8.488281 59.207031 C 7.746094 58.300781 7.046875 57.359375 6.394531 56.386719 C 5.746094 55.410156 5.144531 54.40625 4.589844 53.371094 C 4.039062 52.339844 3.535156 51.28125 3.089844 50.195312 C 2.640625 49.113281 2.246094 48.011719 1.90625 46.890625 C 1.566406 45.765625 1.28125 44.632812 1.050781 43.480469 C 0.824219 42.332031 0.652344 41.171875 0.535156 40.007812 C 0.421875 38.839844 0.363281 37.671875 0.363281 36.5 C 0.363281 35.324219 0.421875 34.15625 0.535156 32.988281 C 0.652344 31.824219 0.824219 30.664062 1.050781 29.515625 C 1.28125 28.363281 1.566406 27.230469 1.90625 26.105469 C 2.246094 24.984375 2.640625 23.882812 3.089844 22.800781 C 3.535156 21.714844 4.039062 20.65625 4.589844 19.625 C 5.144531 18.589844 5.746094 17.585938 6.394531 16.609375 C 7.046875 15.636719 7.746094 14.695312 8.488281 13.789062 C 9.234375 12.882812 10.019531 12.015625 10.847656 11.1875 C 11.675781 10.359375 12.542969 9.570312 13.449219 8.828125 C 14.355469 8.082031 15.296875 7.386719 16.273438 6.734375 C 17.246094 6.082031 18.25 5.480469 19.285156 4.929688 C 20.320312 4.375 21.378906 3.875 22.460938 3.425781 C 23.542969 2.976562 24.644531 2.585938 25.769531 2.242188 C 26.890625 1.902344 28.027344 1.617188 29.175781 1.390625 C 30.324219 1.160156 31.484375 0.988281 32.652344 0.875 C 33.816406 0.761719 34.988281 0.703125 36.160156 0.703125 C 37.332031 0.703125 38.5 0.761719 39.667969 0.875 C 40.835938 0.988281 41.992188 1.160156 43.144531 1.390625 C 44.292969 1.617188 45.429688 1.902344 46.550781 2.242188 C 47.671875 2.585938 48.773438 2.976562 49.859375 3.425781 C 50.941406 3.875 52 4.375 53.035156 4.929688 C 54.066406 5.480469 55.070312 6.082031 56.046875 6.734375 C 57.019531 7.386719 57.960938 8.082031 58.867188 8.828125 C 59.773438 9.570312 60.640625 10.359375 61.472656 11.1875 C 62.300781 12.015625 63.085938 12.882812 63.828125 13.789062 C 64.574219 14.695312 65.269531 15.636719 65.921875 16.609375 C 66.574219 17.585938 67.175781 18.589844 67.726562 19.625 C 68.28125 20.65625 68.78125 21.714844 69.230469 22.800781 C 69.679688 23.882812 70.074219 24.984375 70.414062 26.105469 C 70.753906 27.230469 71.039062 28.363281 71.265625 29.515625 C 71.496094 30.664062 71.667969 31.824219 71.78125 32.988281 C 71.898438 34.15625 71.957031 35.324219 71.953125 36.5 Z M 71.953125 36.5 " fill-opacity="1" fill-rule="nonzero"/></g></g></g></g></g><path fill="#ffffff" d="M 218.738281 158.652344 L 190.367188 176.308594 C 188.984375 177.695312 186.597656 176.714844 186.597656 174.75 L 186.542969 142.285156 C 186.542969 140.320312 188.90625 139.339844 190.3125 140.726562 L 218.738281 155.515625 C 219.605469 156.402344 219.605469 157.785156 218.738281 158.652344 Z M 218.738281 158.652344 " fill-opacity="1" fill-rule="nonzero"/></svg>